<?xml version="1.0" encoding="UTF-8" standalone="no"?>
<!DOCTYPE svg PUBLIC "-//W3C//DTD SVG 1.1//EN" "http://www.w3.org/Graphics/SVG/1.1/DTD/svg11.dtd">
<svg width="100%" height="100%" viewBox="0 0 1280 640" version="1.1" xmlns="http://www.w3.org/2000/svg" xmlns:xlink="http://www.w3.org/1999/xlink" xml:space="preserve" xmlns:serif="http://www.serif.com/" style="fill-rule:evenodd;clip-rule:evenodd;stroke-linejoin:round;stroke-miterlimit:2;">
    <g transform="matrix(1.03662,0,0,1.03662,-37.5898,-170.261)">
        <g id="Fondo">
            <path id="path867" d="M662.211,483.492C662.211,635.689 531.863,759.069 371.071,759.069C210.279,759.069 79.932,635.689 79.932,483.492L80.024,207.986L116.106,207.976L183.153,270.706C218.285,245.27 298.6,207.921 371.071,207.916C443.842,207.91 518.326,238.909 556.93,273.066L625.522,207.937L662.225,207.944L662.211,483.492Z" style="fill:rgb(236,236,236);fill-rule:nonzero;"/>
        </g>
    </g>
    <g transform="matrix(1.03662,0,0,1.03662,-37.5898,-170.261)">
        <g id="Fondo-Contorno" serif:id="Fondo Contorno">
            <path id="path1292-6" d="M641.274,220.37L557.354,302.188C520.429,260.882 437.477,227.866 369.372,227.52C301.267,227.174 223.351,256.91 179.713,300.599L100.827,231.491L100.751,482.504C100.751,631.046 226.238,735.902 370.211,735.9C514.185,735.899 641.335,624.7 642.113,481.709L641.274,220.37Z" style="fill:rgb(255,204,0);fill-rule:nonzero;"/>
        </g>
    </g>
    <g id="Contorno" transform="matrix(1,0,0,1,-34.6623,-162.646)">
        <g id="path1292" transform="matrix(1.03662,0,0,1.03662,-2.92749,-7.6149)">
            <path d="M641.274,220.37L557.354,302.188C520.429,260.882 437.477,227.866 369.372,227.52C301.267,227.174 223.351,256.91 179.713,300.599L100.827,231.491L100.751,482.504C100.751,631.046 226.238,735.902 370.211,735.9C514.185,735.899 641.335,624.7 642.113,481.709L641.274,220.37ZM370.297,246.071C451.415,246.483 521.19,289.881 555.613,328.389L622.938,264.825L623.72,481.449C622.994,614.751 504.458,718.415 370.239,718.416C236.021,718.417 119.146,620.667 119.146,482.189L119.108,275.191L180.899,326.907C221.581,286.178 289.18,245.659 370.297,246.071Z" style="fill:rgb(120,68,33);fill-rule:nonzero;"/>
        </g>
        <g transform="matrix(1,0,0,1,-2.96322,228.574)">
            <text x="770.281px" y="306.11px" style="font-family:'MADhacker', 'MAD hacker';font-size:170px;fill:rgb(255,204,0);stroke:rgb(120,68,33);stroke-width:18px;">MIS<tspan x="1108.21px " y="306.11px ">T</tspan></text>
        </g>
    </g>
    <g transform="matrix(1.03662,0,0,1.03662,-37.5898,-170.261)">
        <g id="Letras">
            <path id="path1573" d="M316.502,543.669L316.246,483.298C316.246,483.298 318.007,441.198 271.768,441.198C246.51,441.198 238.456,460.262 238.456,460.262C238.456,460.262 233.627,441.198 204.049,441.198C161.043,441.198 159.571,483.298 159.571,483.298L159.496,544.463C160.335,581.797 193.863,648.074 269.507,647.728C345.151,647.381 371.051,588.946 371.051,588.946C371.051,588.946 396.171,649.108 468.399,648.522C540.627,647.936 580.013,590.535 580.013,542.874L580.102,461.231L601.832,461.18L601.832,440.778L580.013,440.778L580.013,392.743L558.356,392.736L558.269,440.406L458.443,441.128C458.443,441.128 423.921,442.68 423.921,472.902C423.921,503.124 458.443,503.882 458.443,503.882L480.148,503.953C480.148,503.953 496.32,505.912 496.093,515.074C495.865,524.237 480.987,524.606 480.987,524.606L422.242,524.606L422.242,543.671L481.737,544.845C481.737,544.845 517.073,545.459 517.073,514.28C517.073,483.101 481.737,482.091 481.737,482.091L458.328,482.506C458.328,482.506 445.74,482.304 445.74,472.108C445.74,460.324 457.489,459.47 457.489,459.47L558.194,461.059L558.194,543.671C558.194,543.671 553.73,632.827 468.399,630.254C383.068,627.681 380.282,543.671 380.282,543.671L380.106,440.709L413.011,410.221L325.734,409.426L360.273,440.709L358.463,544.465C358.463,544.465 352.23,630.44 268.668,630.254C185.105,630.068 179.712,544.465 179.712,544.465L181.39,482.506C181.39,482.506 183.061,461.059 204.888,461.059C226.715,461.059 226.889,483.3 226.889,483.3L227.547,545.259L249.335,543.92L248.928,483.3C248.928,483.3 248.957,460.264 271.949,460.264C294.941,460.264 294.683,484.095 294.683,484.095L293.844,543.671L316.502,543.669Z" style="fill:rgb(120,68,33);fill-rule:nonzero;"/>
        </g>
    </g>
    <g id="Ojos" transform="matrix(1,0,0,1,-34.6623,-162.646)">
        <g id="path1594" transform="matrix(1.03662,0,0,1.03662,-2.92749,-7.6149)">
            <path d="M226.889,381.65C226.889,381.65 227.369,339.396 271.768,339.55C316.168,339.704 315.994,381.65 315.994,381.65L294.641,381.889C294.641,381.889 294.651,359.975 271.364,359.975C248.076,359.975 249.786,381.471 249.786,381.471L226.889,381.65Z" style="fill:rgb(120,68,33);fill-rule:nonzero;"/>
        </g>
        <g id="path1594-7" transform="matrix(1.03662,0,0,1.03662,-2.92749,-7.6149)">
            <path d="M425.638,381.65C425.638,381.65 426.118,339.396 470.517,339.55C514.917,339.704 514.743,381.65 514.743,381.65L493.39,381.889C493.39,381.889 493.398,359.975 470.113,359.975C446.825,359.975 448.535,381.471 448.535,381.471L425.638,381.65Z" style="fill:rgb(120,68,33);fill-rule:nonzero;"/>
        </g>
    </g>
</svg>
