<?xml version="1.0" encoding="UTF-8" standalone="no"?>
<svg
   xmlns:dc="http://purl.org/dc/elements/1.1/"
   xmlns:cc="http://creativecommons.org/ns#"
   xmlns:rdf="http://www.w3.org/1999/02/22-rdf-syntax-ns#"
   xmlns:svg="http://www.w3.org/2000/svg"
   xmlns="http://www.w3.org/2000/svg"
   xmlns:sodipodi="http://sodipodi.sourceforge.net/DTD/sodipodi-0.dtd"
   xmlns:inkscape="http://www.inkscape.org/namespaces/inkscape"
   inkscape:version="1.0 (4035a4f, 2020-05-01)"
   sodipodi:docname="mist-demo-1.svg"
   id="svg956"
   stroke-miterlimit="10"
   stroke-linecap="square"
   stroke="none"
   fill="none"
   viewBox="0.0 0.0 960.0 600.0"
   version="1.1">
  <metadata
     id="metadata962">
    <rdf:RDF>
      <cc:Work
         rdf:about="">
        <dc:format>image/svg+xml</dc:format>
        <dc:type
           rdf:resource="http://purl.org/dc/dcmitype/StillImage" />
      </cc:Work>
    </rdf:RDF>
  </metadata>
  <defs
     id="defs960" />
  <sodipodi:namedview
     inkscape:current-layer="svg956"
     inkscape:window-maximized="0"
     inkscape:window-y="476"
     inkscape:window-x="1440"
     inkscape:cy="300"
     inkscape:cx="480"
     inkscape:zoom="0.74166667"
     showgrid="false"
     id="namedview958"
     inkscape:window-height="1027"
     inkscape:window-width="1920"
     inkscape:pageshadow="2"
     inkscape:pageopacity="0"
     guidetolerance="10"
     gridtolerance="10"
     objecttolerance="10"
     borderopacity="1"
     bordercolor="#666666"
     pagecolor="#ffffff" />
  <clipPath
     id="gc229684d08_0_588.0">
    <path
       id="path833"
       clip-rule="nonzero"
       d="m0 0l960.0 0l0 600.0l-960.0 0l0 -600.0z" />
  </clipPath>
  <path
     fill="#ffffff"
     d="M 0,0 H 960 V 600 H 0 Z"
     fill-rule="evenodd"
     id="path836" />
  <path
     fill="#f7893b"
     d="m 27.850393,336.8486 h 80.157477 l 26.70867,26.70865 -26.70867,26.70865 H 27.850393 Z"
     fill-rule="evenodd"
     id="path852" />
  <path
     stroke="#b45f06"
     stroke-width="1"
     stroke-linejoin="round"
     stroke-linecap="butt"
     d="m 27.850393,336.8486 h 80.157477 l 26.70867,26.70865 -26.70867,26.70865 H 27.850393 Z"
     fill-rule="evenodd"
     id="path854" />
  <path
     fill="#ffffff"
     d="m 50.641884,364.77786 2.046875,0.65625 q -0.46875,1.71875 -1.578125,2.54687 -1.09375,0.82813 -2.78125,0.82813 -2.078125,0 -3.4375,-1.42188 -1.34375,-1.42187 -1.34375,-3.90625 0,-2.60937 1.359375,-4.0625 1.359375,-1.45312 3.5625,-1.45312 1.921875,0 3.125,1.14062 0.71875,0.67188 1.0625,1.9375 l -2.09375,0.5 q -0.1875,-0.82812 -0.78125,-1.29687 -0.578125,-0.46875 -1.421875,-0.46875 -1.171875,0 -1.90625,0.84375 -0.71875,0.82812 -0.71875,2.70312 0,1.98438 0.71875,2.84375 0.71875,0.84375 1.859375,0.84375 0.84375,0 1.453125,-0.53125 0.609375,-0.54687 0.875,-1.70312 z m 3.928024,3.85937 v -10.40625 h 2.109375 v 8.64063 h 5.28125 v 1.76562 z m 8.827621,0 v -10.48437 h 2.125 v 10.48437 z m 8.143951,0 v -10.48437 h 2.125 v 10.48437 z m 11.040726,0 h -2.015625 v -3.875 q 0,-1.23437 -0.125,-1.59375 -0.125,-0.35937 -0.421875,-0.5625 -0.296875,-0.20312 -0.703125,-0.20312 -0.515625,0 -0.9375,0.29687 -0.40625,0.28125 -0.5625,0.75 -0.15625,0.46875 -0.15625,1.75 v 3.4375 h -2.015625 v -7.59375 h 1.875 v 1.10938 q 1,-1.28125 2.5,-1.28125 0.671875,0 1.21875,0.23437 0.546875,0.23438 0.828125,0.60938 0.296875,0.375 0.40625,0.84375 0.109375,0.46875 0.109375,1.35937 z m 1.983872,-7.59375 h 1.875 v 1.10938 q 0.359375,-0.57813 0.984375,-0.92188 0.625,-0.35937 1.375,-0.35937 1.328125,0 2.25,1.03125 0.921875,1.03125 0.921875,2.89062 0,1.90625 -0.9375,2.96875 -0.921875,1.04688 -2.25,1.04688 -0.625,0 -1.140625,-0.25 -0.5,-0.25 -1.078125,-0.85938 v 3.82813 h -2 z m 1.984375,3.67188 q 0,1.28125 0.5,1.89062 0.515625,0.60938 1.25,0.60938 0.703125,0 1.15625,-0.5625 0.46875,-0.5625 0.46875,-1.84375 0,-1.20313 -0.484375,-1.78125 -0.46875,-0.57813 -1.1875,-0.57813 -0.734375,0 -1.21875,0.57813 -0.484375,0.5625 -0.484375,1.6875 z m 12.015121,3.92187 v -1.14062 q -0.40625,0.60937 -1.09375,0.96875 -0.671875,0.34375 -1.421875,0.34375 -0.765625,0 -1.375,-0.32813 -0.609375,-0.34375 -0.875,-0.95312 -0.265625,-0.60938 -0.265625,-1.6875 v -4.79688 h 2 v 3.48438 q 0,1.60937 0.109375,1.96875 0.109375,0.35937 0.40625,0.57812 0.296875,0.20313 0.75,0.20313 0.515625,0 0.921875,-0.28125 0.40625,-0.28125 0.546875,-0.70313 0.15625,-0.42187 0.15625,-2.04687 v -3.20313 h 2.015621 v 7.59375 z m 7.436996,-7.59375 v 1.59375 h -1.375 v 3.0625 q 0,0.9375 0.0312,1.09375 0.0469,0.14063 0.1875,0.25 0.14063,0.0937 0.34375,0.0937 0.28125,0 0.8125,-0.1875 l 0.17188,1.5625 q -0.70313,0.29688 -1.59375,0.29688 -0.54688,0 -0.98438,-0.17188 -0.42187,-0.1875 -0.64062,-0.46875 -0.20313,-0.29687 -0.28125,-0.79687 -0.0625,-0.35938 -0.0625,-1.42188 v -3.3125 h -0.92188 v -1.59375 h 0.92188 v -1.51562 l 2.01562,-1.17188 v 2.6875 z"
     fill-rule="nonzero"
     id="path856" />
  <path
     fill="#f7893b"
     d="m 222.11559,322.74377 v 0 c 0,-4.50824 3.65465,-8.1629 8.16289,-8.1629 h 90.54037 c 2.16492,0 4.24118,0.86001 5.77204,2.39087 1.53082,1.53082 2.39084,3.60708 2.39084,5.77203 v 32.65057 c 0,4.50824 -3.65464,8.16291 -8.16288,8.16291 h -90.54037 v 0 c -4.50824,0 -8.16289,-3.65467 -8.16289,-8.16291 z"
     fill-rule="evenodd"
     id="path858" />
  <path
     stroke="#b45f06"
     stroke-width="1"
     stroke-linejoin="round"
     stroke-linecap="butt"
     d="m 222.11559,322.74377 v 0 c 0,-4.50824 3.65465,-8.1629 8.16289,-8.1629 h 90.54037 c 2.16492,0 4.24118,0.86001 5.77204,2.39087 1.53082,1.53082 2.39084,3.60708 2.39084,5.77203 v 32.65057 c 0,4.50824 -3.65464,8.16291 -8.16288,8.16291 h -90.54037 v 0 c -4.50824,0 -8.16289,-3.65467 -8.16289,-8.16291 z"
     fill-rule="evenodd"
     id="path860" />
  <path
     fill="#ffffff"
     d="m 249.44319,331.69467 2.25,-0.21875 q 0.20312,1.14062 0.82812,1.67187 0.625,0.53125 1.67188,0.53125 1.125,0 1.6875,-0.46875 0.56248,-0.48437 0.56248,-1.10937 0,-0.40625 -0.23437,-0.6875 -0.23436,-0.29688 -0.82811,-0.5 -0.40625,-0.14063 -1.85938,-0.5 -1.85937,-0.46875 -2.60937,-1.14063 -1.04688,-0.9375 -1.04688,-2.29687 0,-0.875 0.48438,-1.64063 0.5,-0.76562 1.4375,-1.15625 0.9375,-0.40625 2.25,-0.40625 2.15623,0 3.24998,0.95313 1.09375,0.9375 1.14063,2.51562 l -2.3125,0.10938 q -0.14061,-0.89063 -0.64061,-1.26563 -0.48438,-0.39062 -1.45313,-0.39062 -1.01562,0 -1.57812,0.40625 -0.375,0.26562 -0.375,0.71875 0,0.40625 0.34375,0.6875 0.4375,0.375 2.125,0.78125 1.68748,0.39062 2.49998,0.8125 0.8125,0.42187 1.26563,1.17187 0.45312,0.73438 0.45312,1.8125 0,0.98438 -0.54687,1.84375 -0.54688,0.85938 -1.54688,1.28125 -0.99998,0.42188 -2.48436,0.42188 -2.17187,0 -3.34375,-1 -1.15625,-1.01563 -1.39062,-2.9375 z m 16.04686,1.09375 2.1875,0.35937 q -0.42188,1.20313 -1.32813,1.84375 -0.90625,0.625 -2.28125,0.625 -2.15625,0 -3.20312,-1.42187 -0.8125,-1.125 -0.8125,-2.85938 0,-2.0625 1.07812,-3.21875 1.07813,-1.17187 2.71875,-1.17187 1.85938,0 2.92188,1.21875 1.07812,1.21875 1.03125,3.75 h -5.5 q 0.0156,0.96875 0.51562,1.51562 0.51563,0.54688 1.28125,0.54688 0.51563,0 0.85938,-0.28125 0.35937,-0.28125 0.53125,-0.90625 z m 0.125,-2.21875 q -0.0156,-0.95313 -0.48438,-1.45313 -0.46875,-0.5 -1.14062,-0.5 -0.71875,0 -1.1875,0.53125 -0.46875,0.51563 -0.46875,1.42188 z m 5.61719,-0.90625 -2,-0.35938 q 0.34375,-1.20312 1.15625,-1.78125 0.82812,-0.57812 2.4375,-0.57812 1.46875,0 2.1875,0.34375 0.71875,0.34375 1.01562,0.89062 0.29688,0.53125 0.29688,1.95313 l -0.0312,2.5625 q 0,1.09375 0.10937,1.625 0.10938,0.51562 0.39063,1.10937 h -2.17188 q -0.0781,-0.21875 -0.20312,-0.65625 -0.0625,-0.1875 -0.0781,-0.25 -0.5625,0.54688 -1.20312,0.82813 -0.64063,0.26562 -1.375,0.26562 -1.28125,0 -2.01563,-0.6875 -0.73437,-0.70312 -0.73437,-1.76562 0,-0.70313 0.32812,-1.25 0.34375,-0.5625 0.9375,-0.84375 0.60938,-0.29688 1.75,-0.51563 1.54688,-0.29687 2.14063,-0.54687 v -0.21875 q 0,-0.625 -0.3125,-0.89063 -0.3125,-0.28125 -1.1875,-0.28125 -0.57813,0 -0.90625,0.23438 -0.32813,0.23437 -0.53125,0.8125 z m 2.9375,1.78125 q -0.42188,0.14062 -1.34375,0.34375 -0.90625,0.1875 -1.1875,0.375 -0.4375,0.29687 -0.4375,0.76562 0,0.46875 0.34375,0.8125 0.34375,0.32813 0.875,0.32813 0.59375,0 1.14062,-0.39063 0.39063,-0.29687 0.51563,-0.73437 0.0937,-0.28125 0.0937,-1.0625 z m 6.41406,3.98437 h -2.1875 v -8.29687 h 2.03125 v 1.17187 q 0.53125,-0.82812 0.9375,-1.09375 0.42187,-0.26562 0.95312,-0.26562 0.75,0 1.45313,0.40625 l -0.6875,1.92187 q -0.54688,-0.35937 -1.03125,-0.35937 -0.45313,0 -0.78125,0.25 -0.3125,0.25 -0.5,0.92187 -0.1875,0.65625 -0.1875,2.78125 z m 11.36719,-5.84375 -2.17188,0.39063 q -0.10937,-0.65625 -0.5,-0.98438 -0.375,-0.32812 -1,-0.32812 -0.8125,0 -1.3125,0.57812 -0.48437,0.5625 -0.48437,1.89063 0,1.46875 0.5,2.07812 0.5,0.60938 1.32812,0.60938 0.625,0 1.01563,-0.34375 0.40625,-0.35938 0.57812,-1.23438 l 2.15625,0.375 q -0.34375,1.48438 -1.29687,2.25 -0.95313,0.75 -2.54688,0.75 -1.82812,0 -2.90625,-1.14062 -1.07812,-1.15625 -1.07812,-3.1875 0,-2.0625 1.07812,-3.20313 1.09375,-1.14062 2.9375,-1.14062 1.51563,0 2.40625,0.65625 0.90625,0.64062 1.29688,1.98437 z m 3.85156,-5.60937 v 4.20312 q 1.0625,-1.23437 2.53125,-1.23437 0.76562,0 1.375,0.28125 0.60937,0.28125 0.90625,0.71875 0.3125,0.4375 0.42187,0.96875 0.125,0.53125 0.125,1.64062 v 4.875 h -2.20312 v -4.39062 q 0,-1.29688 -0.125,-1.64063 -0.125,-0.35937 -0.4375,-0.5625 -0.3125,-0.21875 -0.79688,-0.21875 -0.54687,0 -0.98437,0.26563 -0.42188,0.26562 -0.625,0.8125 -0.1875,0.53125 -0.1875,1.57812 v 4.15625 h -2.20313 v -11.45312 z"
     fill-rule="nonzero"
     id="path862" />
  <path
     fill="#ffffff"
     d="m 242.91975,342.97592 h 4.23437 q 1.42188,0 2.17188,0.21875 1.01562,0.29687 1.73437,1.0625 0.71875,0.75 1.09375,1.84375 0.375,1.09375 0.375,2.70312 0,1.42188 -0.35937,2.4375 -0.42188,1.25 -1.21875,2.03125 -0.60938,0.57813 -1.625,0.90625 -0.76563,0.25 -2.04688,0.25 h -4.35937 z m 2.3125,1.9375 v 7.57812 h 1.73437 q 0.96875,0 1.39063,-0.10937 0.5625,-0.14063 0.9375,-0.46875 0.375,-0.34375 0.60937,-1.10938 0.23438,-0.76562 0.23438,-2.09375 0,-1.32812 -0.23438,-2.03125 -0.23437,-0.71875 -0.65625,-1.10937 -0.42187,-0.40625 -1.07812,-0.54688 -0.48438,-0.10937 -1.89063,-0.10937 z m 8.72656,5.25 q 0,-1.09375 0.53125,-2.10938 0.54688,-1.03125 1.53124,-1.5625 1,-0.54687 2.21875,-0.54687 1.875,0 3.07812,1.21875 1.20313,1.21875 1.20313,3.09375 0,1.875 -1.21875,3.125 -1.20313,1.23437 -3.04688,1.23437 -1.14062,0 -2.1875,-0.51562 -1.03123,-0.51563 -1.57811,-1.51563 -0.53125,-1 -0.53125,-2.42187 z m 2.24999,0.10937 q 0,1.23438 0.57812,1.89063 0.59375,0.65625 1.45313,0.65625 0.85937,0 1.4375,-0.65625 0.59375,-0.65625 0.59375,-1.90625 0,-1.21875 -0.59375,-1.875 -0.57813,-0.65625 -1.4375,-0.65625 -0.85938,0 -1.45313,0.65625 -0.57812,0.65625 -0.57812,1.89062 z m 7.86718,-4.14062 h 2.03125 v 1.125 q 1.07813,-1.3125 2.57813,-1.3125 0.79687,0 1.375,0.32812 0.59375,0.32813 0.96875,0.98438 0.54687,-0.65625 1.17187,-0.98438 0.64063,-0.32812 1.35938,-0.32812 0.92187,0 1.54687,0.375 0.64063,0.35937 0.95313,1.07812 0.21875,0.53125 0.21875,1.71875 v 5.3125 h -2.1875 v -4.75 q 0,-1.23437 -0.23438,-1.59375 -0.29687,-0.46875 -0.9375,-0.46875 -0.45312,0 -0.85937,0.28125 -0.40625,0.28125 -0.59375,0.82813 -0.17188,0.54687 -0.17188,1.71875 v 3.98437 h -2.20312 v -4.54687 q 0,-1.21875 -0.125,-1.5625 -0.10938,-0.35938 -0.35938,-0.53125 -0.23437,-0.17188 -0.65625,-0.17188 -0.51562,0 -0.92187,0.28125 -0.40625,0.26563 -0.57813,0.78125 -0.17187,0.51563 -0.17187,1.71875 v 4.03125 h -2.20313 z m 16.03907,2.53125 -2,-0.35938 q 0.34375,-1.20312 1.15625,-1.78125 0.82812,-0.57812 2.4375,-0.57812 1.46875,0 2.1875,0.34375 0.71875,0.34375 1.01562,0.89062 0.29688,0.53125 0.29688,1.95313 l -0.0312,2.5625 q 0,1.09375 0.10937,1.625 0.10938,0.51562 0.39063,1.10937 h -2.17188 q -0.0781,-0.21875 -0.20312,-0.65625 -0.0625,-0.1875 -0.0781,-0.25 -0.5625,0.54688 -1.20312,0.82813 -0.64063,0.26562 -1.375,0.26562 -1.28125,0 -2.01563,-0.6875 -0.73437,-0.70312 -0.73437,-1.76562 0,-0.70313 0.32812,-1.25 0.34375,-0.5625 0.9375,-0.84375 0.60938,-0.29688 1.75,-0.51563 1.54688,-0.29687 2.14063,-0.54687 v -0.21875 q 0,-0.625 -0.3125,-0.89063 -0.3125,-0.28125 -1.1875,-0.28125 -0.57813,0 -0.90625,0.23438 -0.32813,0.23437 -0.53125,0.8125 z m 2.9375,1.78125 q -0.42188,0.14062 -1.34375,0.34375 -0.90625,0.1875 -1.1875,0.375 -0.4375,0.29687 -0.4375,0.76562 0,0.46875 0.34375,0.8125 0.34375,0.32813 0.875,0.32813 0.59375,0 1.14062,-0.39063 0.39063,-0.29687 0.51563,-0.73437 0.0937,-0.28125 0.0937,-1.0625 z m 4.32031,-5.4375 v -2.03125 h 2.1875 v 2.03125 z m 0,9.42187 v -8.29687 h 2.1875 v 8.29687 z m 11.99219,0 h -2.20313 v -4.23437 q 0,-1.34375 -0.14062,-1.73438 -0.14063,-0.40625 -0.45313,-0.625 -0.3125,-0.21875 -0.76562,-0.21875 -0.5625,0 -1.01563,0.3125 -0.45312,0.3125 -0.625,0.82813 -0.17187,0.51562 -0.17187,1.90625 v 3.76562 h -2.1875 v -8.29687 h 2.03125 v 1.21875 q 1.09375,-1.40625 2.73437,-1.40625 0.73438,0 1.32813,0.26562 0.60937,0.25 0.90625,0.65625 0.3125,0.40625 0.4375,0.92188 0.125,0.51562 0.125,1.48437 z m 1.44531,-2.375 2.20312,-0.32812 q 0.14063,0.64062 0.5625,0.96875 0.4375,0.32812 1.21875,0.32812 0.84375,0 1.28125,-0.3125 0.28125,-0.21875 0.28125,-0.57812 0,-0.25 -0.15625,-0.42188 -0.15625,-0.15625 -0.73437,-0.28125 -2.65625,-0.59375 -3.35938,-1.07812 -0.98437,-0.67188 -0.98437,-1.85938 0,-1.07812 0.84375,-1.8125 0.85937,-0.73437 2.64062,-0.73437 1.70313,0 2.53125,0.5625 0.82813,0.54687 1.14063,1.625 l -2.0625,0.39062 q -0.14063,-0.48437 -0.51563,-0.73437 -0.35937,-0.26563 -1.04687,-0.26563 -0.875,0 -1.25,0.23438 -0.25,0.17187 -0.25,0.45312 0,0.23438 0.21875,0.39063 0.29687,0.21875 2.04687,0.625 1.76563,0.39062 2.45313,0.96875 0.6875,0.59375 0.6875,1.64062 0,1.14063 -0.95313,1.96875 -0.95312,0.8125 -2.8125,0.8125 -1.70312,0 -2.6875,-0.6875 -0.98437,-0.6875 -1.29687,-1.875 z"
     fill-rule="nonzero"
     id="path864" />
  <path
     fill="#f7893b"
     d="m 527.6286,281.56445 v 0 c 0,-4.50824 3.65466,-8.16287 8.1629,-8.16287 h 84.14667 c 2.16492,0 4.24121,0.86001 5.77204,2.39084 1.53082,1.53085 2.39087,3.60711 2.39087,5.77203 v 32.6506 c 0,4.50824 -3.65467,8.16291 -8.16291,8.16291 H 535.7915 c -4.50824,0 -8.1629,-3.65467 -8.1629,-8.16291 z"
     fill-rule="evenodd"
     id="path866" />
  <path
     stroke="#b45f06"
     stroke-width="1"
     stroke-linejoin="round"
     stroke-linecap="butt"
     d="m 527.6286,281.56445 v 0 c 0,-4.50824 3.65466,-8.16287 8.1629,-8.16287 h 84.14667 c 2.16492,0 4.24121,0.86001 5.77204,2.39084 1.53082,1.53085 2.39087,3.60711 2.39087,5.77203 v 32.6506 c 0,4.50824 -3.65467,8.16291 -8.16291,8.16291 H 535.7915 c -4.50824,0 -8.1629,-3.65467 -8.1629,-8.16291 z"
     fill-rule="evenodd"
     id="path868" />
  <path
     fill="#ffffff"
     d="m 564.7857,294.68976 v -9.54688 h 6.53125 v 1.625 h -4.60937 v 2.25 h 3.98437 v 1.625 h -3.98437 v 4.04688 z m 8.11011,-7.84375 v -1.70313 h 1.82812 v 1.70313 z m 0,7.84375 v -6.90625 h 1.82812 v 6.90625 z m 9.99981,0 h -1.82812 v -3.53125 q 0,-1.10938 -0.125,-1.4375 -0.10938,-0.32813 -0.375,-0.51563 -0.26563,-0.1875 -0.64063,-0.1875 -0.46875,0 -0.85937,0.26563 -0.375,0.26562 -0.51563,0.70312 -0.14062,0.42188 -0.14062,1.57813 v 3.125 h -1.82813 v -6.90625 h 1.70313 v 1.01562 q 0.90625,-1.17187 2.28125,-1.17187 0.60937,0 1.10937,0.21875 0.5,0.21875 0.75,0.5625 0.26563,0.32812 0.35938,0.76562 0.10937,0.42188 0.10937,1.21875 z m 8.18824,0 h -1.70313 v -1.01563 q -0.42187,0.59375 -1,0.89063 -0.57812,0.28125 -1.15625,0.28125 -1.1875,0 -2.04687,-0.95313 -0.84375,-0.96875 -0.84375,-2.6875 0,-1.75 0.82812,-2.65625 0.82813,-0.92187 2.09375,-0.92187 1.15625,0 2,0.95312 v -3.4375 h 1.82813 z m -4.875,-3.60938 q 0,1.10938 0.29687,1.60938 0.4375,0.71875 1.23438,0.71875 0.64062,0 1.07812,-0.53125 0.4375,-0.54688 0.4375,-1.60938 0,-1.20312 -0.4375,-1.71875 -0.42187,-0.53125 -1.09375,-0.53125 -0.64062,0 -1.07812,0.51563 -0.4375,0.51562 -0.4375,1.54687 z"
     fill-rule="nonzero"
     id="path870" />
  <path
     fill="#ffffff"
     d="m 544.37744,305.971 q 0,-1.45313 0.4375,-2.4375 0.32812,-0.73438 0.89062,-1.3125 0.5625,-0.57813 1.23438,-0.85938 0.89062,-0.375 2.04687,-0.375 2.10938,0 3.375,1.3125 1.26563,1.29688 1.26563,3.64063 0,2.29687 -1.25,3.60937 -1.25,1.29688 -3.35938,1.29688 -2.125,0 -3.39062,-1.29688 -1.25,-1.29687 -1.25,-3.57812 z m 1.98437,-0.0625 q 0,1.625 0.75,2.46875 0.75,0.82812 1.90625,0.82812 1.14063,0 1.875,-0.82812 0.75,-0.82813 0.75,-2.48438 0,-1.64062 -0.71875,-2.45312 -0.71875,-0.8125 -1.90625,-0.8125 -1.20312,0 -1.9375,0.82812 -0.71875,0.8125 -0.71875,2.45313 z m 8.71082,-2.125 h 1.70312 v 1.01562 q 0.32813,-0.53125 0.89063,-0.84375 0.57812,-0.32812 1.26562,-0.32812 1.20313,0 2.03125,0.9375 0.84375,0.9375 0.84375,2.625 0,1.73437 -0.84375,2.70312 -0.84375,0.95313 -2.04687,0.95313 -0.57813,0 -1.04688,-0.21875 -0.45312,-0.23438 -0.96875,-0.79688 v 3.48438 h -1.82812 z m 1.8125,3.32812 q 0,1.17188 0.45312,1.73438 0.46875,0.54687 1.125,0.54687 0.64063,0 1.0625,-0.5 0.42188,-0.51562 0.42188,-1.6875 0,-1.07812 -0.4375,-1.60937 -0.4375,-0.53125 -1.07813,-0.53125 -0.67187,0 -1.10937,0.51562 -0.4375,0.51563 -0.4375,1.53125 z m 10.37573,1.375 1.82813,0.3125 q -0.34375,1 -1.10938,1.53125 -0.76562,0.51563 -1.89062,0.51563 -1.8125,0 -2.67188,-1.17188 -0.6875,-0.95312 -0.6875,-2.39062 0,-1.71875 0.89063,-2.6875 0.90625,-0.96875 2.28125,-0.96875 1.54687,0 2.4375,1.01562 0.89062,1.01563 0.84375,3.125 h -4.57813 q 0.0156,0.8125 0.4375,1.26563 0.42188,0.45312 1.0625,0.45312 0.42188,0 0.71875,-0.23437 0.29688,-0.23438 0.4375,-0.76563 z m 0.10938,-1.84375 q -0.0156,-0.79687 -0.40625,-1.20312 -0.39063,-0.42188 -0.95313,-0.42188 -0.59375,0 -0.98437,0.4375 -0.39063,0.4375 -0.39063,1.1875 z m 9.59997,4.04688 h -1.82812 v -3.53125 q 0,-1.10938 -0.125,-1.4375 -0.10938,-0.32813 -0.375,-0.51563 -0.26563,-0.1875 -0.64063,-0.1875 -0.46875,0 -0.85937,0.26563 -0.375,0.26562 -0.51563,0.70312 -0.14062,0.42188 -0.14062,1.57813 v 3.125 h -1.82813 v -6.90625 h 1.70313 v 1.01562 q 0.90625,-1.17187 2.28125,-1.17187 0.60937,0 1.10937,0.21875 0.5,0.21875 0.75,0.5625 0.26563,0.32812 0.35938,0.76562 0.10937,0.42188 0.10937,1.21875 z m 1.86011,0 v -9.54688 h 3.09375 q 1.75,0 2.29688,0.15625 0.8125,0.20313 1.35937,0.92188 0.5625,0.71875 0.5625,1.85937 0,0.875 -0.32812,1.48438 -0.3125,0.59375 -0.8125,0.9375 -0.48438,0.34375 -0.98438,0.45312 -0.70312,0.14063 -2,0.14063 h -1.26562 v 3.59375 z m 1.92188,-7.92188 v 2.70313 h 1.0625 q 1.14062,0 1.51562,-0.14063 0.39063,-0.15625 0.60938,-0.46875 0.21875,-0.32812 0.21875,-0.75 0,-0.51562 -0.3125,-0.85937 -0.29688,-0.34375 -0.76563,-0.42188 -0.34375,-0.0625 -1.39062,-0.0625 z m 6.53039,4.375 q 0,-0.92187 0.45313,-1.76562 0.45312,-0.85938 1.26562,-1.29688 0.82813,-0.45312 1.84375,-0.45312 1.5625,0 2.5625,1.01562 1.01563,1.01563 1.01563,2.57813 0,1.5625 -1.01563,2.59375 -1.01562,1.03125 -2.54687,1.03125 -0.95313,0 -1.8125,-0.42188 -0.85938,-0.4375 -1.3125,-1.26562 -0.45313,-0.82813 -0.45313,-2.01563 z m 1.875,0.0937 q 0,1.03125 0.48438,1.57813 0.5,0.54687 1.20312,0.54687 0.71875,0 1.20313,-0.54687 0.48437,-0.54688 0.48437,-1.59375 0,-1.01563 -0.48437,-1.5625 -0.48438,-0.54688 -1.20313,-0.54688 -0.70312,0 -1.20312,0.54688 -0.48438,0.54687 -0.48438,1.57812 z m 8.43823,3.45313 h -1.82812 v -6.90625 h 1.70312 v 0.98437 q 0.4375,-0.70312 0.78125,-0.92187 0.34375,-0.21875 0.79688,-0.21875 0.625,0 1.20312,0.34375 l -0.5625,1.59375 q -0.46875,-0.29688 -0.85937,-0.29688 -0.39063,0 -0.65625,0.21875 -0.26563,0.20313 -0.42188,0.76563 -0.15625,0.54687 -0.15625,2.29687 z m 6.60865,-6.90625 v 1.45312 h -1.25 v 2.78125 q 0,0.84375 0.0312,0.98438 0.0469,0.14062 0.17187,0.23437 0.125,0.0937 0.3125,0.0937 0.25,0 0.73438,-0.17187 l 0.15625,1.42187 q -0.64063,0.26563 -1.45313,0.26563 -0.48437,0 -0.89062,-0.15625 -0.39063,-0.17188 -0.57813,-0.4375 -0.1875,-0.26563 -0.26562,-0.71875 -0.0469,-0.3125 -0.0469,-1.28125 v -3.01563 h -0.84375 v -1.45312 h 0.84375 v -1.375 l 1.82813,-1.07813 v 2.45313 z m 0.62585,4.9375 1.82812,-0.28125 q 0.125,0.53125 0.48438,0.8125 0.35937,0.26562 1,0.26562 0.70312,0 1.0625,-0.25 0.25,-0.1875 0.25,-0.48437 0,-0.21875 -0.14063,-0.35938 -0.125,-0.125 -0.60937,-0.23437 -2.20313,-0.48438 -2.79688,-0.89063 -0.82812,-0.5625 -0.82812,-1.5625 0,-0.89062 0.70312,-1.5 0.71875,-0.60937 2.20313,-0.60937 1.42187,0 2.10937,0.46875 0.70313,0.45312 0.95313,1.35937 l -1.71875,0.3125 q -0.10938,-0.40625 -0.42188,-0.60937 -0.3125,-0.21875 -0.89062,-0.21875 -0.71875,0 -1.03125,0.20312 -0.20313,0.14063 -0.20313,0.35938 0,0.20312 0.1875,0.34375 0.23438,0.17187 1.6875,0.51562 1.46875,0.32813 2.0625,0.8125 0.5625,0.48438 0.5625,1.35938 0,0.95312 -0.79687,1.64062 -0.78125,0.67188 -2.34375,0.67188 -1.40625,0 -2.23438,-0.5625 -0.82812,-0.57813 -1.07812,-1.5625 z"
     fill-rule="nonzero"
     id="path872" />
  <path
     fill="#000000"
     fill-opacity="0"
     d="m 378.41483,297.88715 h 74.60672 v 0.063 h 74.62164"
     fill-rule="evenodd"
     id="path874" />
  <path
     stroke="#1464a5"
     stroke-width="1"
     stroke-linejoin="round"
     stroke-linecap="butt"
     d="m 378.41483,297.88715 h 74.60672 v 0.063 h 71.19452"
     fill-rule="evenodd"
     id="path876" />
  <path
     fill="#1464a5"
     stroke="#1464a5"
     stroke-width="1"
     stroke-linecap="butt"
     d="m 524.21606,297.95013 -1.12457,1.12457 3.08978,-1.12457 -3.08978,-1.12457 z"
     fill-rule="evenodd"
     id="path878" />
  <path
     fill="#2dcccd"
     d="m 346.9144,321.84515 v 0 c -3.47946,0 -6.30008,-10.72638 -6.30008,-23.95801 0,-13.23166 2.82062,-23.95801 6.30008,-23.95801 h 25.20035 c 3.47943,0 6.30008,10.72635 6.30008,23.95801 0,13.23163 -2.82065,23.95801 -6.30008,23.95801 z"
     fill-rule="evenodd"
     id="path880" />
  <path
     fill="#000000"
     fill-opacity="0"
     d="m 346.9144,273.92914 v 0 c 3.47943,0 6.30008,10.72635 6.30008,23.95801 0,13.23163 -2.82065,23.95801 -6.30008,23.95801"
     fill-rule="evenodd"
     id="path882" />
  <path
     fill="#000000"
     fill-opacity="0"
     d="m 346.9144,321.84515 v 0 c -3.47946,0 -6.30008,-10.72638 -6.30008,-23.95801 0,-13.23166 2.82062,-23.95801 6.30008,-23.95801 h 25.20035 c 3.47943,0 6.30008,10.72635 6.30008,23.95801 0,13.23163 -2.82065,23.95801 -6.30008,23.95801 z"
     fill-rule="evenodd"
     id="path884" />
  <path
     stroke="#02a5a5"
     stroke-width="1"
     stroke-linejoin="round"
     stroke-linecap="butt"
     d="m 346.9144,273.92914 v 0 c 3.47943,0 6.30008,10.72635 6.30008,23.95801 0,13.23163 -2.82065,23.95801 -6.30008,23.95801"
     fill-rule="evenodd"
     id="path886" />
  <path
     stroke="#02a5a5"
     stroke-width="1"
     stroke-linejoin="round"
     stroke-linecap="butt"
     d="m 346.9144,321.84515 v 0 c -3.47946,0 -6.30008,-10.72638 -6.30008,-23.95801 0,-13.23166 2.82062,-23.95801 6.30008,-23.95801 h 25.20035 c 3.47943,0 6.30008,10.72635 6.30008,23.95801 0,13.23163 -2.82065,23.95801 -6.30008,23.95801 z"
     fill-rule="evenodd"
     id="path888" />
  <path
     fill="#000000"
     fill-opacity="0"
     d="m 134.71654,363.55725 h 43.6999 v -24.47244 h 43.70167"
     fill-rule="evenodd"
     id="path890" />
  <path
     stroke="#1464a5"
     stroke-width="1"
     stroke-linejoin="round"
     stroke-linecap="butt"
     d="m 134.71654,363.55725 h 43.6999 v -24.47244 h 40.27459"
     fill-rule="evenodd"
     id="path892" />
  <path
     fill="#1464a5"
     stroke="#1464a5"
     stroke-width="1"
     stroke-linecap="butt"
     d="m 218.69102,339.0848 -1.12459,1.12457 3.08977,-1.12457 -3.08977,-1.12457 z"
     fill-rule="evenodd"
     id="path894" />
  <path
     fill="#000000"
     fill-opacity="0"
     d="m 519.99713,297.85565 v 0.0315 h 0.063 v 0.0315"
     fill-rule="evenodd"
     id="path896" />
  <path
     stroke="#1464a5"
     stroke-width="1"
     stroke-linejoin="round"
     stroke-linecap="butt"
     d="m 519.99713,297.85565 v 0.0315 h 0.063 v 0.0315"
     fill-rule="evenodd"
     id="path898" />
  <path
     fill="#1973b8"
     d="m 7.0138445,391.23096 c 0,2.66141 12.5430775,4.81891 28.0157505,4.81891 15.472667,0 28.015747,-2.1575 28.015747,-4.81891 v 28.91339 c 0,2.66141 -12.543079,4.81891 -28.015747,4.81891 -15.472672,0 -28.0157505,-2.1575 -28.0157505,-4.81891 z"
     fill-rule="evenodd"
     id="path900" />
  <path
     fill="#75abd4"
     d="m 7.0138445,391.23096 c 0,-2.66138 12.5430775,-4.81888 28.0157505,-4.81888 15.472667,0 28.015747,2.1575 28.015747,4.81888 v 0 c 0,2.66141 -12.543079,4.81891 -28.015747,4.81891 -15.472672,0 -28.0157505,-2.1575 -28.0157505,-4.81891 z"
     fill-rule="evenodd"
     id="path902" />
  <path
     fill="#000000"
     fill-opacity="0"
     d="m 63.04534,391.23096 v 0 c 0,2.66141 -12.543079,4.81891 -28.015747,4.81891 -15.472671,0 -28.01575,-2.1575 -28.01575,-4.81891 0,-2.66138 12.543078,-4.81888 28.01575,-4.81888 15.472668,0 28.015747,2.1575 28.015747,4.81888 v 28.91339 c 0,2.66141 -12.543079,4.81891 -28.015747,4.81891 -15.472671,0 -28.01575,-2.1575 -28.01575,-4.81891 v -28.91339"
     fill-rule="evenodd"
     id="path904" />
  <path
     stroke="#1464a5"
     stroke-width="1"
     stroke-linejoin="round"
     stroke-linecap="butt"
     d="m 63.04534,391.23096 v 0 c 0,2.66141 -12.543079,4.81891 -28.015747,4.81891 -15.472671,0 -28.01575,-2.1575 -28.01575,-4.81891 0,-2.66138 12.543078,-4.81888 28.01575,-4.81888 15.472668,0 28.015747,2.1575 28.015747,4.81888 v 28.91339 c 0,2.66141 -12.543079,4.81891 -28.015747,4.81891 -15.472671,0 -28.01575,-2.1575 -28.01575,-4.81891 v -28.91339"
     fill-rule="evenodd"
     id="path906" />
  <path
     fill="#ffffff"
     d="m 31.37297,409.39713 1.859375,0.57812 q -0.421875,1.5625 -1.421875,2.32813 -1,0.75 -2.53125,0.75 -1.90625,0 -3.140625,-1.29688 -1.21875,-1.29687 -1.21875,-3.54687 0,-2.375 1.234375,-3.6875 1.234375,-1.32813 3.234375,-1.32813 1.75,0 2.84375,1.03125 0.65625,0.60938 0.984375,1.76563 l -1.90625,0.45312 q -0.171875,-0.75 -0.71875,-1.17187 -0.53125,-0.4375 -1.296875,-0.4375 -1.0625,0 -1.734375,0.76562 -0.65625,0.76563 -0.65625,2.46875 0,1.8125 0.65625,2.57813 0.65625,0.76562 1.6875,0.76562 0.78125,0 1.328125,-0.48437 0.546875,-0.48438 0.796875,-1.53125 z m 3.562653,3.5 v -9.46875 h 1.9375 v 7.85937 h 4.781246 v 1.60938 z m 8.031979,0 v -9.54688 h 1.9375 v 9.54688 z"
     fill-rule="nonzero"
     id="path908" />
  <path
     fill="#fce5cd"
     d="M 27.850393,465.40158 H 614.88976 l 22.75592,22.75589 -22.75592,22.75592 H 27.850393 L 50.6063,488.15747 Z"
     fill-rule="evenodd"
     id="path910" />
  <path
     stroke="#b45f06"
     stroke-width="1"
     stroke-linejoin="round"
     stroke-linecap="butt"
     d="M 27.850393,465.40158 H 614.88976 l 22.75592,22.75589 -22.75592,22.75592 H 27.850393 L 50.6063,488.15747 Z"
     fill-rule="evenodd"
     id="path912" />
  <path
     fill="#666666"
     d="m 294.69775,481.7181 h 4.9375 q 1.65625,0 2.53125,0.26562 1.1875,0.34375 2.01562,1.23438 0.84375,0.875 1.28125,2.15625 0.4375,1.28125 0.4375,3.15625 0,1.64062 -0.40625,2.84375 -0.5,1.45312 -1.4375,2.35937 -0.70312,0.67188 -1.89062,1.0625 -0.89063,0.28125 -2.39063,0.28125 h -5.07812 z m 2.70312,2.26562 v 8.84375 h 2.01563 q 1.125,0 1.625,-0.125 0.65625,-0.17187 1.07812,-0.5625 0.4375,-0.39062 0.70313,-1.28125 0.28125,-0.90625 0.28125,-2.45312 0,-1.54688 -0.28125,-2.375 -0.26563,-0.82813 -0.76563,-1.28125 -0.48437,-0.46875 -1.23437,-0.64063 -0.5625,-0.125 -2.21875,-0.125 z m 10.17606,6.125 q 0,-1.28125 0.625,-2.46875 0.625,-1.20312 1.78125,-1.82812 1.15625,-0.625 2.57813,-0.625 2.1875,0 3.59375,1.42187 1.40625,1.42188 1.40625,3.60938 0,2.1875 -1.42188,3.64062 -1.42187,1.4375 -3.5625,1.4375 -1.32812,0 -2.54687,-0.59375 -1.20313,-0.60937 -1.82813,-1.76562 -0.625,-1.17188 -0.625,-2.82813 z m 2.625,0.125 q 0,1.45313 0.67188,2.21875 0.6875,0.75 1.6875,0.75 1,0 1.67187,-0.75 0.6875,-0.76562 0.6875,-2.23437 0,-1.42188 -0.6875,-2.1875 -0.67187,-0.76563 -1.67187,-0.76563 -1,0 -1.6875,0.76563 -0.67188,0.76562 -0.67188,2.20312 z m 9.16162,-4.82812 h 2.35938 v 1.3125 q 1.26562,-1.53125 3.01562,-1.53125 0.9375,0 1.60938,0.39062 0.6875,0.375 1.125,1.14063 0.64062,-0.76563 1.375,-1.14063 0.75,-0.39062 1.57812,-0.39062 1.0625,0 1.79688,0.4375 0.75,0.42187 1.10937,1.26562 0.26563,0.625 0.26563,2 v 6.1875 h -2.5625 v -5.53125 q 0,-1.4375 -0.26563,-1.85937 -0.34375,-0.54688 -1.09375,-0.54688 -0.53125,0 -1.01562,0.32813 -0.46875,0.32812 -0.67188,0.96875 -0.20312,0.625 -0.20312,2 v 4.64062 h -2.5625 v -5.29687 q 0,-1.42188 -0.14063,-1.82813 -0.14062,-0.40625 -0.42187,-0.60937 -0.28125,-0.20313 -0.78125,-0.20313 -0.59375,0 -1.0625,0.32813 -0.46875,0.3125 -0.6875,0.92187 -0.20313,0.59375 -0.20313,1.98438 v 4.70312 h -2.5625 z m 18.69776,2.95312 -2.32813,-0.42187 q 0.40625,-1.40625 1.35938,-2.07813 0.95312,-0.67187 2.84375,-0.67187 1.70312,0 2.54687,0.40625 0.84375,0.40625 1.17188,1.03125 0.34375,0.625 0.34375,2.28125 l -0.0156,3 q 0,1.26562 0.10938,1.875 0.125,0.60937 0.46875,1.29687 h -2.53125 q -0.10938,-0.25 -0.25,-0.75 -0.0625,-0.23437 -0.0937,-0.3125 -0.65625,0.64063 -1.40625,0.96875 -0.73438,0.3125 -1.59375,0.3125 -1.48438,0 -2.34375,-0.8125 -0.85938,-0.8125 -0.85938,-2.04687 0,-0.82813 0.39063,-1.46875 0.39062,-0.64063 1.09375,-0.96875 0.70312,-0.34375 2.03125,-0.60938 1.79687,-0.32812 2.48437,-0.625 v -0.25 q 0,-0.75 -0.35937,-1.0625 -0.35938,-0.3125 -1.375,-0.3125 -0.6875,0 -1.07813,0.28125 -0.375,0.26563 -0.60937,0.9375 z m 3.42187,2.07813 q -0.48437,0.15625 -1.5625,0.39062 -1.0625,0.21875 -1.39062,0.4375 -0.5,0.35938 -0.5,0.90625 0,0.53125 0.40625,0.9375 0.40625,0.39063 1.01562,0.39063 0.70313,0 1.32813,-0.46875 0.46875,-0.34375 0.60937,-0.84375 0.0937,-0.32813 0.0937,-1.25 z m 5.04761,-6.34375 v -2.375 h 2.5625 v 2.375 z m 0,10.98437 v -9.67187 h 2.5625 v 9.67187 z m 13.98016,0 h -2.5625 v -4.9375 q 0,-1.5625 -0.17187,-2.01562 -0.15625,-0.46875 -0.53125,-0.71875 -0.35938,-0.26563 -0.875,-0.26563 -0.67188,0 -1.20313,0.375 -0.53125,0.35938 -0.73437,0.96875 -0.1875,0.59375 -0.1875,2.21875 v 4.375 h -2.54688 v -9.67187 h 2.375 v 1.42187 q 1.26563,-1.64062 3.1875,-1.64062 0.84375,0 1.54688,0.3125 0.70312,0.29687 1.0625,0.78125 0.35937,0.46875 0.5,1.07812 0.14062,0.59375 0.14062,1.70313 z m 1.69287,-2.76562 2.5625,-0.39063 q 0.17188,0.75 0.67188,1.14063 0.5,0.39062 1.40625,0.39062 0.98437,0 1.48437,-0.375 0.34375,-0.25 0.34375,-0.67187 0,-0.29688 -0.1875,-0.48438 -0.1875,-0.1875 -0.85937,-0.34375 -3.09375,-0.6875 -3.92188,-1.25 -1.14062,-0.78125 -1.14062,-2.17187 0,-1.26563 0.98437,-2.10938 1,-0.85937 3.07813,-0.85937 1.98437,0 2.95312,0.65625 0.96875,0.64062 1.32813,1.90625 l -2.40625,0.4375 q -0.15625,-0.5625 -0.59375,-0.85938 -0.42188,-0.29687 -1.23438,-0.29687 -1,0 -1.4375,0.28125 -0.29687,0.20312 -0.29687,0.51562 0,0.26563 0.25,0.46875 0.34375,0.25 2.39062,0.71875 2.04688,0.45313 2.85938,1.14063 0.79687,0.67187 0.79687,1.89062 0,1.34375 -1.10937,2.29688 -1.10938,0.95312 -3.28125,0.95312 -1.98438,0 -3.14063,-0.79687 -1.14062,-0.8125 -1.5,-2.1875 z"
     fill-rule="nonzero"
     id="path914" />
  <path
     fill="#cfe2f3"
     d="m 637.65094,465.40158 h 277.02362 l 22.75586,22.75589 -22.75586,22.75592 H 637.65094 l 22.75586,-22.75592 z"
     fill-rule="evenodd"
     id="path916" />
  <path
     stroke="#1464a5"
     stroke-width="1"
     stroke-linejoin="round"
     stroke-linecap="butt"
     d="m 637.65094,465.40158 h 277.02362 l 22.75586,22.75589 -22.75586,22.75592 H 637.65094 l 22.75586,-22.75592 z"
     fill-rule="evenodd"
     id="path918" />
  <path
     fill="#666666"
     d="m 738.0779,488.48373 q 0,-2.04688 0.60937,-3.42188 0.45313,-1.03125 1.23438,-1.82812 0.79687,-0.8125 1.73437,-1.20313 1.25,-0.53125 2.875,-0.53125 2.95313,0 4.71875,1.82813 1.78125,1.82812 1.78125,5.09375 0,3.23437 -1.76562,5.0625 -1.75,1.82812 -4.6875,1.82812 -2.98438,0 -4.75,-1.8125 -1.75,-1.82812 -1.75,-5.01562 z m 2.78125,-0.0937 q 0,2.26562 1.04687,3.4375 1.04688,1.17187 2.65625,1.17187 1.60938,0 2.64063,-1.15625 1.04687,-1.17187 1.04687,-3.48437 0,-2.29688 -1.01562,-3.42188 -1,-1.14062 -2.67188,-1.14062 -1.67187,0 -2.6875,1.15625 -1.01562,1.14062 -1.01562,3.4375 z m 12.18329,-2.98438 h 2.39062 v 1.42188 q 0.46875,-0.73438 1.25,-1.1875 0.79688,-0.45313 1.76563,-0.45313 1.6875,0 2.85937,1.32813 1.17188,1.3125 1.17188,3.67187 0,2.42188 -1.1875,3.76563 -1.1875,1.34375 -2.85938,1.34375 -0.8125,0 -1.46875,-0.3125 -0.64062,-0.32813 -1.35937,-1.09375 v 4.875 h -2.5625 z m 2.53125,4.67188 q 0,1.625 0.64062,2.40625 0.65625,0.78125 1.57813,0.78125 0.90625,0 1.48437,-0.71875 0.59375,-0.71875 0.59375,-2.34375 0,-1.51563 -0.60937,-2.25 -0.60938,-0.75 -1.51563,-0.75 -0.9375,0 -1.5625,0.73437 -0.60937,0.71875 -0.60937,2.14063 z m 14.53662,1.92187 2.54687,0.42188 q -0.48437,1.40625 -1.54687,2.14062 -1.0625,0.73438 -2.65625,0.73438 -2.51563,0 -3.73438,-1.65625 -0.95312,-1.3125 -0.95312,-3.32813 0,-2.40625 1.25,-3.76562 1.26562,-1.35938 3.1875,-1.35938 2.15625,0 3.40625,1.42188 1.25,1.42187 1.1875,4.375 h -6.40625 q 0.0312,1.14062 0.60937,1.78125 0.59375,0.625 1.48438,0.625 0.59375,0 1,-0.32813 0.42187,-0.32812 0.625,-1.0625 z m 0.15625,-2.59375 q -0.0312,-1.10937 -0.57813,-1.6875 -0.54687,-0.57812 -1.32812,-0.57812 -0.84375,0 -1.39063,0.60937 -0.54687,0.60938 -0.53125,1.65625 z m 13.42261,5.67188 h -2.5625 v -4.9375 q 0,-1.5625 -0.17188,-2.01563 -0.15625,-0.46875 -0.53125,-0.71875 -0.35937,-0.26562 -0.875,-0.26562 -0.67187,0 -1.20312,0.375 -0.53125,0.35937 -0.73438,0.96875 -0.1875,0.59375 -0.1875,2.21875 v 4.375 h -2.54687 v -9.67188 h 2.375 v 1.42188 q 1.26562,-1.64063 3.1875,-1.64063 0.84375,0 1.54687,0.3125 0.70313,0.29688 1.0625,0.78125 0.35938,0.46875 0.5,1.07813 0.14063,0.59375 0.14063,1.70312 z m 7.79797,0 V 481.7181 h 4.32813 q 2.45312,0 3.20312,0.20313 1.14063,0.29687 1.92188,1.3125 0.78125,1 0.78125,2.59375 0,1.23437 -0.45313,2.07812 -0.45312,0.82813 -1.14062,1.3125 -0.6875,0.46875 -1.39063,0.625 -0.96875,0.20313 -2.79687,0.20313 h -1.76563 v 5.03125 z m 2.6875,-11.09375 v 3.78125 h 1.48438 q 1.59375,0 2.125,-0.20313 0.54687,-0.20312 0.84375,-0.65625 0.3125,-0.45312 0.3125,-1.03125 0,-0.73437 -0.4375,-1.20312 -0.42188,-0.48438 -1.07813,-0.59375 -0.48437,-0.0937 -1.9375,-0.0937 z m 9.14673,6.125 q 0,-1.28125 0.625,-2.46875 0.625,-1.20313 1.78125,-1.82813 1.15625,-0.625 2.57812,-0.625 2.1875,0 3.59375,1.42188 1.40625,1.42187 1.40625,3.60937 0,2.1875 -1.42187,3.64063 -1.42188,1.4375 -3.5625,1.4375 -1.32813,0 -2.54688,-0.59375 -1.20312,-0.60938 -1.82812,-1.76563 -0.625,-1.17187 -0.625,-2.82812 z m 2.625,0.125 q 0,1.45312 0.67187,2.21875 0.6875,0.75 1.6875,0.75 1,0 1.67188,-0.75 0.6875,-0.76563 0.6875,-2.23438 0,-1.42187 -0.6875,-2.1875 -0.67188,-0.76562 -1.67188,-0.76562 -1,0 -1.6875,0.76562 -0.67187,0.76563 -0.67187,2.20313 z m 11.81787,4.84375 h -2.5625 v -9.67188 h 2.375 v 1.375 q 0.60938,-0.98437 1.09375,-1.28125 0.48438,-0.3125 1.10938,-0.3125 0.875,0 1.6875,0.48438 l -0.79688,2.23437 q -0.64062,-0.42187 -1.20312,-0.42187 -0.53125,0 -0.90625,0.29687 -0.375,0.29688 -0.59375,1.07813 -0.20313,0.76562 -0.20313,3.23437 z m 9.24463,-9.67188 v 2.03125 h -1.75 v 3.90625 q 0,1.1875 0.0469,1.39063 0.0469,0.1875 0.21875,0.3125 0.1875,0.125 0.4375,0.125 0.35938,0 1.03125,-0.25 l 0.21875,2 q -0.89062,0.375 -2.01562,0.375 -0.70313,0 -1.26563,-0.23438 -0.54687,-0.23437 -0.8125,-0.59375 -0.25,-0.375 -0.34375,-1 -0.0937,-0.45312 -0.0937,-1.8125 v -4.21875 h -1.17187 v -2.03125 h 1.17187 v -1.92187 l 2.57813,-1.5 v 3.42187 z m 0.8689,6.90625 2.5625,-0.39062 q 0.17187,0.75 0.67187,1.14062 0.5,0.39063 1.40625,0.39063 0.98438,0 1.48438,-0.375 0.34375,-0.25 0.34375,-0.67188 0,-0.29687 -0.1875,-0.48437 -0.1875,-0.1875 -0.85938,-0.34375 -3.09375,-0.6875 -3.92187,-1.25 -1.14063,-0.78125 -1.14063,-2.17188 0,-1.26562 0.98438,-2.10937 1,-0.85938 3.07812,-0.85938 1.98438,0 2.95313,0.65625 0.96875,0.64063 1.32812,1.90625 l -2.40625,0.4375 q -0.15625,-0.5625 -0.59375,-0.85937 -0.42187,-0.29688 -1.23437,-0.29688 -1,0 -1.4375,0.28125 -0.29688,0.20313 -0.29688,0.51563 0,0.26562 0.25,0.46875 0.34375,0.25 2.39063,0.71875 2.04687,0.45312 2.85937,1.14062 0.79688,0.67188 0.79688,1.89063 0,1.34375 -1.10938,2.29687 -1.10937,0.95313 -3.28125,0.95313 -1.98437,0 -3.14062,-0.79688 -1.14063,-0.8125 -1.5,-2.1875 z"
     fill-rule="nonzero"
     id="path920" />
  <path
     fill="#f7893b"
     d="m 836.9658,298.885 16.74408,-30.33203 h 66.97638 c 9.2475,0 16.74414,13.58011 16.74414,30.33203 0,16.75192 -7.49664,30.33203 -16.74414,30.33203 h -66.97638 z"
     fill-rule="evenodd"
     id="path922" />
  <path
     stroke="#b45f06"
     stroke-width="1"
     stroke-linejoin="round"
     stroke-linecap="butt"
     d="m 836.9658,298.885 16.74408,-30.33203 h 66.97638 c 9.2475,0 16.74414,13.58011 16.74414,30.33203 0,16.75192 -7.49664,30.33203 -16.74414,30.33203 h -66.97638 z"
     fill-rule="evenodd"
     id="path924" />
  <path
     fill="#ffffff"
     d="m 865.45483,292.57562 1.875,-0.17187 q 0.17188,0.9375 0.6875,1.39062 0.51563,0.4375 1.39063,0.4375 0.9375,0 1.40625,-0.39062 0.46875,-0.40625 0.46875,-0.92188 0,-0.34375 -0.20313,-0.57812 -0.1875,-0.23438 -0.6875,-0.42188 -0.34375,-0.10937 -1.54687,-0.40625 -1.54688,-0.39062 -2.17188,-0.95312 -0.875,-0.78125 -0.875,-1.92188 0,-0.71875 0.40625,-1.35937 0.42188,-0.64063 1.1875,-0.96875 0.78125,-0.32813 1.89063,-0.32813 1.79687,0 2.70312,0.79688 0.90625,0.78125 0.95313,2.09375 l -1.92188,0.0781 q -0.125,-0.73437 -0.53125,-1.04687 -0.40625,-0.32813 -1.23437,-0.32813 -0.82813,0 -1.3125,0.34375 -0.29688,0.21875 -0.29688,0.59375 0,0.34375 0.28125,0.57813 0.35938,0.3125 1.76563,0.64062 1.40625,0.32813 2.07812,0.6875 0.6875,0.35938 1.0625,0.96875 0.375,0.60938 0.375,1.51563 0,0.82812 -0.45312,1.54687 -0.45313,0.70313 -1.29688,1.0625 -0.82812,0.34375 -2.0625,0.34375 -1.8125,0 -2.78125,-0.82812 -0.96875,-0.84375 -1.15625,-2.45313 z m 15.38977,-1.76562 -1.79687,0.32812 q -0.0937,-0.53125 -0.42188,-0.79687 -0.32812,-0.28125 -0.82812,-0.28125 -0.6875,0 -1.09375,0.46875 -0.40625,0.46875 -0.40625,1.57812 0,1.23438 0.40625,1.75 0.42187,0.5 1.10937,0.5 0.53125,0 0.85938,-0.29687 0.32812,-0.29688 0.46875,-1.03125 l 1.79687,0.3125 q -0.28125,1.23437 -1.07812,1.875 -0.79688,0.625 -2.125,0.625 -1.51563,0 -2.42188,-0.95313 -0.90625,-0.95312 -0.90625,-2.65625 0,-1.70312 0.90625,-2.65625 0.90625,-0.95312 2.45313,-0.95312 1.26562,0 2,0.54687 0.75,0.53125 1.07812,1.64063 z m 3.13123,4.875 h -1.82813 v -6.90625 h 1.70313 v 0.98437 q 0.4375,-0.70312 0.78125,-0.92187 0.34375,-0.21875 0.79687,-0.21875 0.625,0 1.20313,0.34375 l -0.5625,1.59375 q -0.46875,-0.29688 -0.85938,-0.29688 -0.39062,0 -0.65625,0.21875 -0.26562,0.20313 -0.42187,0.76563 -0.15625,0.54687 -0.15625,2.29687 z m 7.43676,-2.20313 1.82813,0.3125 q -0.34375,1 -1.10938,1.53125 -0.76562,0.51563 -1.89062,0.51563 -1.8125,0 -2.67188,-1.17188 -0.6875,-0.95312 -0.6875,-2.39062 0,-1.71875 0.89063,-2.6875 0.90625,-0.96875 2.28125,-0.96875 1.54687,0 2.4375,1.01562 0.89062,1.01563 0.84375,3.125 h -4.57813 q 0.0156,0.8125 0.4375,1.26563 0.42188,0.45312 1.0625,0.45312 0.42188,0 0.71875,-0.23437 0.29688,-0.23438 0.4375,-0.76563 z m 0.10938,-1.84375 q -0.0156,-0.79687 -0.40625,-1.20312 -0.39063,-0.42188 -0.95313,-0.42188 -0.59375,0 -0.98437,0.4375 -0.39063,0.4375 -0.39063,1.1875 z m 7.3031,1.84375 1.82812,0.3125 q -0.34375,1 -1.10937,1.53125 -0.76563,0.51563 -1.89063,0.51563 -1.8125,0 -2.67187,-1.17188 -0.6875,-0.95312 -0.6875,-2.39062 0,-1.71875 0.89062,-2.6875 0.90625,-0.96875 2.28125,-0.96875 1.54688,0 2.4375,1.01562 0.89063,1.01563 0.84375,3.125 h -4.57812 q 0.0156,0.8125 0.4375,1.26563 0.42187,0.45312 1.0625,0.45312 0.42187,0 0.71875,-0.23437 0.29687,-0.23438 0.4375,-0.76563 z m 0.10937,-1.84375 q -0.0156,-0.79687 -0.40625,-1.20312 -0.39062,-0.42188 -0.95312,-0.42188 -0.59375,0 -0.98438,0.4375 -0.39062,0.4375 -0.39062,1.1875 z m 9.59998,4.04688 h -1.82812 v -3.53125 q 0,-1.10938 -0.125,-1.4375 -0.10938,-0.32813 -0.375,-0.51563 -0.26563,-0.1875 -0.64063,-0.1875 -0.46875,0 -0.85937,0.26563 -0.375,0.26562 -0.51563,0.70312 -0.14062,0.42188 -0.14062,1.57813 v 3.125 h -1.82813 v -6.90625 h 1.70313 v 1.01562 q 0.90625,-1.17187 2.28125,-1.17187 0.60937,0 1.10937,0.21875 0.5,0.21875 0.75,0.5625 0.26563,0.32812 0.35938,0.76562 0.10937,0.42188 0.10937,1.21875 z"
     fill-rule="nonzero"
     id="path926" />
  <path
     fill="#ffffff"
     d="m 871.5645,314.4975 h -1.25 q -1,-1.51563 -1.51563,-3.125 -0.51562,-1.625 -0.51562,-3.14063 0,-1.89062 0.64062,-3.5625 0.5625,-1.45312 1.42188,-2.6875 h 1.25 q -0.89063,1.96875 -1.23438,3.35938 -0.32812,1.375 -0.32812,2.92187 0,1.07813 0.1875,2.20313 0.20312,1.10937 0.54687,2.10937 0.23438,0.67188 0.79688,1.92188 z m 1.42273,-2.8125 v -9.54688 h 3.09375 q 1.75,0 2.29687,0.15625 0.8125,0.20313 1.35938,0.92188 0.5625,0.71875 0.5625,1.85937 0,0.875 -0.32813,1.48438 -0.3125,0.59375 -0.8125,0.9375 -0.48437,0.34375 -0.98437,0.45312 -0.70313,0.14063 -2,0.14063 h -1.26563 v 3.59375 z m 1.92187,-7.92188 v 2.70313 h 1.0625 q 1.14063,0 1.51563,-0.14063 0.39062,-0.15625 0.60937,-0.46875 0.21875,-0.32812 0.21875,-0.75 0,-0.51562 -0.3125,-0.85937 -0.29687,-0.34375 -0.76562,-0.42188 -0.34375,-0.0625 -1.39063,-0.0625 z m 8.70227,7.92188 h -1.82812 v -6.90625 h 1.70312 v 0.98437 q 0.4375,-0.70312 0.78125,-0.92187 0.34375,-0.21875 0.79688,-0.21875 0.625,0 1.20312,0.34375 l -0.5625,1.59375 q -0.46875,-0.29688 -0.85937,-0.29688 -0.39063,0 -0.65625,0.21875 -0.26563,0.20313 -0.42188,0.76563 -0.15625,0.54687 -0.15625,2.29687 z m 3.43677,-7.84375 v -1.70313 h 1.82813 v 1.70313 z m 0,7.84375 v -6.90625 h 1.82813 v 6.90625 z m 9.99988,0 h -1.82812 v -3.53125 q 0,-1.10938 -0.125,-1.4375 -0.10938,-0.32813 -0.375,-0.51563 -0.26563,-0.1875 -0.64063,-0.1875 -0.46875,0 -0.85937,0.26563 -0.375,0.26562 -0.51563,0.70312 -0.14062,0.42188 -0.14062,1.57813 v 3.125 h -1.82813 v -6.90625 h 1.70313 v 1.01562 q 0.90625,-1.17187 2.28125,-1.17187 0.60937,0 1.10937,0.21875 0.5,0.21875 0.75,0.5625 0.26563,0.32812 0.35938,0.76562 0.10937,0.42188 0.10937,1.21875 z m 5.01636,-6.90625 v 1.45312 h -1.25 v 2.78125 q 0,0.84375 0.0312,0.98438 0.0469,0.14062 0.17187,0.23437 0.125,0.0937 0.3125,0.0937 0.25,0 0.73438,-0.17187 l 0.15625,1.42187 q -0.64063,0.26563 -1.45313,0.26563 -0.48437,0 -0.89062,-0.15625 -0.39063,-0.17188 -0.57813,-0.4375 -0.1875,-0.26563 -0.26562,-0.71875 -0.0469,-0.3125 -0.0469,-1.28125 v -3.01563 h -0.84375 v -1.45312 h 0.84375 v -1.375 l 1.82813,-1.07813 v 2.45313 z m 0.76648,9.71875 q 0.53125,-1.17188 0.75,-1.79688 0.23437,-0.60937 0.42187,-1.40625 0.1875,-0.8125 0.26563,-1.53125 0.0937,-0.73437 0.0937,-1.5 0,-1.54687 -0.32813,-2.92187 -0.32812,-1.39063 -1.21875,-3.35938 h 1.23438 q 0.98437,1.40625 1.53125,2.96875 0.54687,1.5625 0.54687,3.1875 0,1.35938 -0.4375,2.90625 -0.48437,1.75 -1.59375,3.45313 z"
     fill-rule="nonzero"
     id="path928" />
  <path
     fill="#2dcccd"
     d="m 713.9971,322.84302 v 0 c -3.47943,0 -6.30011,-10.72638 -6.30011,-23.95801 0,-13.23166 2.82068,-23.95801 6.30011,-23.95801 h 25.20032 c 3.47949,0 6.30011,10.72635 6.30011,23.95801 0,13.23163 -2.82062,23.95801 -6.30011,23.95801 z"
     fill-rule="evenodd"
     id="path930" />
  <path
     fill="#000000"
     fill-opacity="0"
     d="m 713.9971,274.927 v 0 c 3.47943,0 6.30011,10.72635 6.30011,23.95801 0,13.23163 -2.82068,23.95801 -6.30011,23.95801"
     fill-rule="evenodd"
     id="path932" />
  <path
     fill="#000000"
     fill-opacity="0"
     d="m 713.9971,322.84302 v 0 c -3.47943,0 -6.30011,-10.72638 -6.30011,-23.95801 0,-13.23166 2.82068,-23.95801 6.30011,-23.95801 h 25.20032 c 3.47949,0 6.30011,10.72635 6.30011,23.95801 0,13.23163 -2.82062,23.95801 -6.30011,23.95801 z"
     fill-rule="evenodd"
     id="path934" />
  <path
     stroke="#02a5a5"
     stroke-width="1"
     stroke-linejoin="round"
     stroke-linecap="butt"
     d="m 713.9971,274.927 v 0 c 3.47943,0 6.30011,10.72635 6.30011,23.95801 0,13.23163 -2.82068,23.95801 -6.30011,23.95801"
     fill-rule="evenodd"
     id="path936" />
  <path
     stroke="#02a5a5"
     stroke-width="1"
     stroke-linejoin="round"
     stroke-linecap="butt"
     d="m 713.9971,322.84302 v 0 c -3.47943,0 -6.30011,-10.72638 -6.30011,-23.95801 0,-13.23166 2.82068,-23.95801 6.30011,-23.95801 h 25.20032 c 3.47949,0 6.30011,10.72635 6.30011,23.95801 0,13.23163 -2.82062,23.95801 -6.30011,23.95801 z"
     fill-rule="evenodd"
     id="path938" />
  <path
     fill="#000000"
     fill-opacity="0"
     d="m 628.1011,297.88977 79.59051,1.00787"
     fill-rule="evenodd"
     id="path940" />
  <path
     stroke="#1464a5"
     stroke-width="1"
     stroke-linejoin="round"
     stroke-linecap="butt"
     d="m 628.1011,297.88977 79.59051,1.00787"
     fill-rule="evenodd"
     id="path942" />
  <path
     fill="#000000"
     fill-opacity="0"
     d="m 745.4975,298.885 h 45.73413 v 0.063 h 45.73047"
     fill-rule="evenodd"
     id="path944" />
  <path
     stroke="#1464a5"
     stroke-width="1"
     stroke-linejoin="round"
     stroke-linecap="butt"
     d="m 745.49756,298.885 h 45.73407 v 0.063 h 42.30341"
     fill-rule="evenodd"
     id="path946" />
  <path
     fill="#1464a5"
     stroke="#1464a5"
     stroke-width="1"
     stroke-linecap="butt"
     d="m 833.53503,298.948 -1.12457,1.12457 3.08972,-1.12457 -3.08972,-1.12457 z"
     fill-rule="evenodd"
     id="path948" />
  <path
     fill="#000000"
     fill-opacity="0"
     d="M 328.98172,339.06906 H 359.5014 V 321.84073"
     fill-rule="evenodd"
     id="path950" />
  <path
     stroke="#1464a5"
     stroke-width="1"
     stroke-linejoin="round"
     stroke-linecap="butt"
     d="M 328.98172,339.06906 H 359.5014 V 321.84073"
     fill-rule="evenodd"
     id="path952" />
</svg>
