<svg version="1.1" viewBox="0.0 0.0 960.0 600.0" fill="none" stroke="none" stroke-linecap="square" stroke-miterlimit="10" xmlns:xlink="http://www.w3.org/1999/xlink" xmlns="http://www.w3.org/2000/svg"><clipPath id="gc229684d08_0_588.0"><path d="m0 0l960.0 0l0 600.0l-960.0 0l0 -600.0z" clip-rule="nonzero"/></clipPath><g clip-path="url(#gc229684d08_0_588.0)"><path fill="#ffffff" d="m0 0l960.0 0l0 600.0l-960.0 0z" fill-rule="evenodd"/><path fill="#2dcccd" d="m939.1075 0l6.666443 0l14.226013 0l0.44067383 0l-0.44067383 1.0759716l0 18.460028l-7.5594482 0l-6.666565 0l-14.666565 0z" fill-rule="evenodd"/><path fill="#000000" fill-opacity="0.0" d="m936.03345 3.6614757l22.33075 0l0 12.566929l-22.33075 0z" fill-rule="evenodd"/><path fill="#ffffff" d="m945.2097 12.621474l-0.8125 0l0 -5.2187495q-0.296875 0.28125 -0.78125 0.5625q-0.484375 0.28124952 -0.859375 0.42187452l0 -0.7968745q0.6875 -0.328125 1.203125 -0.78125q0.515625 -0.453125 0.734375 -0.890625l0.515625 0l0 6.7031245zm2.1097412 -1.765625l0.828125 -0.109375q0.140625 0.703125 0.46875 1.015625q0.34375 0.296875 0.828125 0.296875q0.578125 0 0.96875 -0.390625q0.40625 -0.40625 0.40625 -1.0q0 -0.5625 -0.375 -0.921875q-0.359375 -0.375 -0.921875 -0.375q-0.234375 0 -0.578125 0.09375l0.078125 -0.71875q0.09375 0 0.140625 0q0.515625 0 0.9375 -0.265625q0.421875 -0.28125 0.421875 -0.8437495q0 -0.453125 -0.3125 -0.75q-0.296875 -0.296875 -0.78125 -0.296875q-0.484375 0 -0.796875 0.3125q-0.3125 0.296875 -0.40625 0.890625l-0.828125 -0.140625q0.15625 -0.828125 0.6875 -1.28125q0.53125 -0.453125 1.328125 -0.453125q0.546875 0 1.0 0.234375q0.46875 0.234375 0.703125 0.640625q0.25 0.40625 0.25 0.859375q0 0.43749952 -0.234375 0.7968745q-0.234375 0.34375 -0.6875 0.5625q0.59375 0.125 0.921875 0.5625q0.328125 0.421875 0.328125 1.078125q0 0.875 -0.640625 1.484375q-0.640625 0.609375 -1.609375 0.609375q-0.875 0 -1.46875 -0.515625q-0.578125 -0.53125 -0.65625 -1.375z" fill-rule="nonzero"/><path fill="#000000" fill-opacity="0.0" d="m800.208 3.6614757l127.52753 0l0 12.566929l-127.52753 0z" fill-rule="evenodd"/><path fill="#2dcccd" d="m885.7599 10.199599q0.078125 0.125 0.125 0.25q0.046875 0.109375 0.09375 0.234375q0.046875 -0.125 0.09375 -0.234375q0.046875 -0.125 0.125 -0.25l2.25 -4.1093745q0.0625 -0.109375 0.125 -0.125q0.078125 -0.03125 0.1875 -0.03125l0.671875 0l0 6.6874995l-0.796875 0l0 -4.9062495q0 -0.109375 0 -0.21875q0.015625 -0.109375 0.015625 -0.21875l-2.28125 4.1718745q-0.125 0.21875 -0.328125 0.21875l-0.125 0q-0.21875 0 -0.328125 -0.21875l-2.34375 -4.1874995q0.015625 0.109375 0.015625 0.234375q0.015625 0.109375 0.015625 0.21875l0 4.9062495l-0.796875 0l0 -6.6874995l0.671875 0q0.109375 0 0.171875 0.03125q0.078125 0.015625 0.140625 0.125l2.296875 4.1093745l0 0zm7.03479 -2.3749995q0.421875 0 0.78125 0.140625q0.359375 0.14062452 0.625 0.40624952q0.265625 0.265625 0.40625 0.671875q0.15625 0.390625 0.15625 0.890625q0 0.203125 -0.046875 0.265625q-0.046875 0.0625 -0.15625 0.0625l-3.140625 0q0 0.453125 0.109375 0.78125q0.125 0.328125 0.3125 0.546875q0.203125 0.21875 0.46875 0.328125q0.265625 0.109375 0.609375 0.109375q0.3125 0 0.53125 -0.0625q0.234375 -0.078125 0.390625 -0.15625q0.171875 -0.09375 0.28125 -0.15625q0.109375 -0.078125 0.1875 -0.078125q0.09375 0 0.15625 0.078125l0.234375 0.3125q-0.15625 0.1875 -0.375 0.328125q-0.21875 0.125 -0.46875 0.21875q-0.234375 0.09375 -0.5 0.125q-0.25 0.046875 -0.515625 0.046875q-0.484375 0 -0.90625 -0.15625q-0.40625 -0.171875 -0.703125 -0.484375q-0.296875 -0.328125 -0.46875 -0.796875q-0.171875 -0.46875 -0.171875 -1.078125q0 -0.5 0.140625 -0.921875q0.15625 -0.4375 0.4375 -0.75q0.296875 -0.3125 0.703125 -0.484375q0.40625 -0.18749952 0.921875 -0.18749952zm0.015625 0.6093745q-0.59375 0 -0.9375 0.34375q-0.34375 0.34375 -0.4375 0.96875l2.578125 0q0 -0.296875 -0.078125 -0.53125q-0.078125 -0.234375 -0.234375 -0.40625q-0.15625 -0.1875 -0.375 -0.28125q-0.21875 -0.09375 -0.515625 -0.09375zm4.8721924 -0.6093745q0.421875 0 0.78125 0.140625q0.359375 0.14062452 0.625 0.40624952q0.265625 0.265625 0.40625 0.671875q0.15625 0.390625 0.15625 0.890625q0 0.203125 -0.046875 0.265625q-0.046875 0.0625 -0.15625 0.0625l-3.140625 0q0 0.453125 0.109375 0.78125q0.125 0.328125 0.3125 0.546875q0.203125 0.21875 0.46875 0.328125q0.265625 0.109375 0.609375 0.109375q0.3125 0 0.53125 -0.0625q0.234375 -0.078125 0.390625 -0.15625q0.171875 -0.09375 0.28125 -0.15625q0.109375 -0.078125 0.1875 -0.078125q0.09375 0 0.15625 0.078125l0.234375 0.3125q-0.15625 0.1875 -0.375 0.328125q-0.21875 0.125 -0.46875 0.21875q-0.234375 0.09375 -0.5 0.125q-0.25 0.046875 -0.515625 0.046875q-0.484375 0 -0.90625 -0.15625q-0.40625 -0.171875 -0.703125 -0.484375q-0.296875 -0.328125 -0.46875 -0.796875q-0.171875 -0.46875 -0.171875 -1.078125q0 -0.5 0.140625 -0.921875q0.15625 -0.4375 0.4375 -0.75q0.296875 -0.3125 0.703125 -0.484375q0.40625 -0.18749952 0.921875 -0.18749952zm0.015625 0.6093745q-0.59375 0 -0.9375 0.34375q-0.34375 0.34375 -0.4375 0.96875l2.578125 0q0 -0.296875 -0.078125 -0.53125q-0.078125 -0.234375 -0.234375 -0.40625q-0.15625 -0.1875 -0.375 -0.28125q-0.21875 -0.09375 -0.515625 -0.09375zm4.4346924 4.265625q-0.5625 0 -0.859375 -0.3125q-0.296875 -0.3125 -0.296875 -0.90625l0 -2.890625l-0.578125 0q-0.0625 0 -0.125 -0.046875q-0.046875 -0.046875 -0.046875 -0.140625l0 -0.328125l0.78125 -0.09374952l0.1875 -1.453125q0.015625 -0.078125 0.0625 -0.125q0.046875 -0.046875 0.125 -0.046875l0.421875 0l0 1.640625l1.359375 0l0 0.5937495l-1.359375 0l0 2.84375q0 0.296875 0.140625 0.4375q0.15625 0.140625 0.375 0.140625q0.140625 0 0.234375 -0.03125q0.09375 -0.03125 0.15625 -0.078125q0.078125 -0.046875 0.125 -0.078125q0.046875 -0.03125 0.078125 -0.03125q0.078125 0 0.125 0.078125l0.234375 0.390625q-0.203125 0.203125 -0.515625 0.328125q-0.296875 0.109375 -0.625 0.109375zm7.263977 -2.5q0.078125 0.125 0.125 0.25q0.046875 0.109375 0.09375 0.234375q0.046875 -0.125 0.09375 -0.234375q0.046875 -0.125 0.125 -0.25l2.25 -4.1093745q0.0625 -0.109375 0.125 -0.125q0.078125 -0.03125 0.1875 -0.03125l0.671875 0l0 6.6874995l-0.796875 0l0 -4.9062495q0 -0.109375 0 -0.21875q0.015625 -0.109375 0.015625 -0.21875l-2.28125 4.1718745q-0.125 0.21875 -0.328125 0.21875l-0.125 0q-0.21875 0 -0.328125 -0.21875l-2.34375 -4.1874995q0.015625 0.109375 0.015625 0.234375q0.015625 0.109375 0.015625 0.21875l0 4.9062495l-0.796875 0l0 -6.6874995l0.671875 0q0.109375 0 0.171875 0.03125q0.078125 0.015625 0.140625 0.125l2.296875 4.1093745l0 0zm6.37854 2.421875l-0.90625 0l0 -6.6874995l0.90625 0l0 6.6874995zm5.2073975 -5.6406245q-0.046875 0.078125 -0.09375 0.109375q-0.046875 0.03125 -0.109375 0.03125q-0.078125 0 -0.1875 -0.078125q-0.109375 -0.078125 -0.28125 -0.171875q-0.15625 -0.09375 -0.375 -0.171875q-0.21875 -0.078125 -0.546875 -0.078125q-0.296875 0 -0.53125 0.078125q-0.234375 0.078125 -0.390625 0.21875q-0.15625 0.140625 -0.234375 0.328125q-0.078125 0.1875 -0.078125 0.40625q0 0.28125 0.125 0.46874952q0.140625 0.1875 0.359375 0.3125q0.234375 0.125 0.515625 0.234375q0.296875 0.09375 0.59375 0.203125q0.296875 0.09375 0.578125 0.21875q0.296875 0.125 0.515625 0.328125q0.234375 0.1875 0.375 0.484375q0.140625 0.28125 0.140625 0.6875q0 0.4375 -0.15625 0.828125q-0.140625 0.375 -0.4375 0.671875q-0.28125 0.28125 -0.703125 0.453125q-0.421875 0.15625 -0.953125 0.15625q-0.640625 0 -1.1875 -0.234375q-0.53125 -0.234375 -0.90625 -0.640625l0.265625 -0.4375q0.03125 -0.046875 0.078125 -0.078125q0.0625 -0.03125 0.125 -0.03125q0.109375 0 0.234375 0.109375q0.125 0.09375 0.3125 0.21875q0.1875 0.125 0.453125 0.234375q0.265625 0.109375 0.65625 0.109375q0.328125 0 0.578125 -0.09375q0.25 -0.09375 0.421875 -0.25q0.171875 -0.15625 0.265625 -0.375q0.09375 -0.234375 0.09375 -0.5q0 -0.3125 -0.140625 -0.5q-0.125 -0.203125 -0.359375 -0.328125q-0.21875 -0.125 -0.515625 -0.21875q-0.28125 -0.09375 -0.578125 -0.1875q-0.296875 -0.09375 -0.59375 -0.21875q-0.28125 -0.125 -0.515625 -0.328125q-0.21875 -0.203125 -0.359375 -0.5q-0.125 -0.3125 -0.125 -0.7499995q0 -0.359375 0.125 -0.6875q0.140625 -0.328125 0.40625 -0.578125q0.265625 -0.265625 0.640625 -0.421875q0.390625 -0.15625 0.890625 -0.15625q0.5625 0 1.015625 0.1875q0.46875 0.171875 0.8125 0.515625l-0.21875 0.421875zm6.0687866 -1.046875l0 0.765625l-2.15625 0l0 5.9218745l-0.90625 0l0 -5.9218745l-2.171875 0l0 -0.765625l5.234375 0z" fill-rule="nonzero"/><path fill="#000000" fill-opacity="0.0" d="m51.849625 44.529274l722.7402 0l0 39.90551l-722.7402 0z" fill-rule="evenodd"/><path fill="#072146" d="m71.068375 60.410522q0 2.109375 -0.734375 3.890625q-0.71875 1.78125 -2.046875 3.078125q-1.3125 1.296875 -3.171875 2.03125q-1.859375 0.71875 -4.125 0.71875l-7.546875 0l0 -19.421875l7.546875 0q2.265625 0 4.125 0.734375q1.859375 0.734375 3.171875 2.03125q1.328125 1.28125 2.046875 3.0625q0.734375 1.78125 0.734375 3.875zm-4.609375 0q0 -1.4375 -0.375 -2.59375q-0.375 -1.15625 -1.078125 -1.96875q-0.6875 -0.8125 -1.703125 -1.234375q-1.015625 -0.4375 -2.3125 -0.4375l-3.015625 0l0 12.484375l3.015625 0q1.296875 0 2.3125 -0.421875q1.015625 -0.4375 1.703125 -1.234375q0.703125 -0.8125 1.078125 -1.96875q0.375 -1.171875 0.375 -2.625zm12.68512 -4.3125q1.375 0 2.515625 0.421875q1.140625 0.421875 1.953125 1.234375q0.828125 0.8125 1.28125 2.0q0.46875 1.171875 0.46875 2.671875q0 0.46875 -0.046875 0.765625q-0.046875 0.28125 -0.15625 0.46875q-0.09375 0.171875 -0.28125 0.234375q-0.171875 0.0625 -0.453125 0.0625l-7.96875 0q0.203125 1.734375 1.046875 2.515625q0.859375 0.78125 2.203125 0.78125q0.71875 0 1.234375 -0.171875q0.53125 -0.171875 0.9375 -0.390625q0.40625 -0.21875 0.734375 -0.390625q0.34375 -0.171875 0.71875 -0.171875q0.484375 0 0.75 0.359375l1.1875 1.484375q-0.625 0.734375 -1.375 1.203125q-0.734375 0.453125 -1.515625 0.71875q-0.78125 0.25 -1.5625 0.34375q-0.78125 0.109375 -1.484375 0.109375q-1.453125 0 -2.734375 -0.46875q-1.265625 -0.484375 -2.21875 -1.40625q-0.953125 -0.9375 -1.515625 -2.328125q-0.546875 -1.390625 -0.546875 -3.21875q0 -1.390625 0.46875 -2.625q0.484375 -1.25 1.359375 -2.171875q0.890625 -0.9375 2.15625 -1.484375q1.265625 -0.546875 2.84375 -0.546875zm0.078125 2.84375q-1.1875 0 -1.859375 0.671875q-0.65625 0.671875 -0.875 1.953125l5.15625 0q0 -0.5 -0.125 -0.96875q-0.125 -0.46875 -0.40625 -0.828125q-0.28125 -0.375 -0.75 -0.59375q-0.46875 -0.234375 -1.140625 -0.234375zm8.500946 11.1875l0 -13.828125l2.5625 0q0.390625 0 0.640625 0.1875q0.265625 0.171875 0.375 0.515625l0.21875 0.75q0.359375 -0.359375 0.71875 -0.65625q0.375 -0.3125 0.8125 -0.53125q0.4375 -0.21875 0.9375 -0.34375q0.5 -0.125 1.09375 -0.125q1.25 0 2.0625 0.65625q0.828125 0.640625 1.265625 1.71875q0.34375 -0.640625 0.84375 -1.09375q0.5 -0.453125 1.078125 -0.734375q0.578125 -0.28125 1.21875 -0.40625q0.65625 -0.140625 1.296875 -0.140625q1.1875 0 2.09375 0.359375q0.921875 0.34375 1.546875 1.015625q0.625 0.671875 0.9375 1.65625q0.328125 0.984375 0.328125 2.21875l0 8.78125l-4.140625 0l0 -8.78125q0 -2.140625 -1.84375 -2.140625q-0.828125 0 -1.390625 0.546875q-0.546875 0.546875 -0.546875 1.59375l0 8.78125l-4.140625 0l0 -8.78125q0 -1.1875 -0.46875 -1.65625q-0.453125 -0.484375 -1.359375 -0.484375q-0.5625 0 -1.0625 0.25q-0.5 0.25 -0.9375 0.671875l0 10.0l-4.140625 0zm29.107193 -14.03125q1.578125 0 2.875 0.5q1.296875 0.484375 2.21875 1.40625q0.921875 0.921875 1.4375 2.234375q0.515625 1.3125 0.515625 2.953125q0 1.640625 -0.515625 2.96875q-0.515625 1.328125 -1.4375 2.265625q-0.921875 0.921875 -2.21875 1.421875q-1.296875 0.5 -2.875 0.5q-1.578125 0 -2.875 -0.5q-1.296875 -0.5 -2.25 -1.421875q-0.9375 -0.9375 -1.453125 -2.265625q-0.5 -1.328125 -0.5 -2.96875q0 -1.640625 0.5 -2.953125q0.515625 -1.3125 1.453125 -2.234375q0.953125 -0.921875 2.25 -1.40625q1.296875 -0.5 2.875 -0.5zm0 11.171875q1.4375 0 2.109375 -1.0q0.671875 -1.0 0.671875 -3.0625q0 -2.046875 -0.671875 -3.046875q-0.671875 -1.0 -2.109375 -1.0q-1.453125 0 -2.140625 1.0q-0.671875 1.0 -0.671875 3.046875q0 2.0625 0.671875 3.0625q0.6875 1.0 2.140625 1.0zm16.214584 -0.125l3.734375 0l0 -9.796875q0 -0.71875 0.03125 -1.5l-2.1875 1.8125q-0.21875 0.1875 -0.4375 0.265625q-0.203125 0.0625 -0.40625 0.0625q-0.34375 0 -0.625 -0.15625q-0.265625 -0.15625 -0.40625 -0.328125l-1.296875 -1.734375l6.046875 -5.078125l3.40625 0l0 16.453125l3.203125 0l0 2.984375l-11.0625 0l0 -2.984375zm18.57396 -6.78125l7.203125 0l0 3.328125l-7.203125 0l0 -3.328125zm29.382416 -9.65625l0 3.578125l-5.46875 0l0 15.84375l-4.5 0l0 -15.84375l-5.46875 0l0 -3.578125l15.4375 0zm1.857666 19.421875l0 -19.953125l4.140625 0l0 7.34375q0.75 -0.640625 1.609375 -1.03125q0.875 -0.390625 2.09375 -0.390625q1.125 0 2.0 0.390625q0.875 0.390625 1.46875 1.09375q0.609375 0.703125 0.90625 1.671875q0.3125 0.953125 0.3125 2.09375l0 8.78125l-4.125 0l0 -8.78125q0 -1.015625 -0.46875 -1.578125q-0.46875 -0.5625 -1.375 -0.5625q-0.671875 0 -1.28125 0.296875q-0.59375 0.28125 -1.140625 0.78125l0 9.84375l-4.140625 0zm21.382446 -14.03125q1.375 0 2.515625 0.421875q1.140625 0.421875 1.953125 1.234375q0.828125 0.8125 1.28125 2.0q0.46875 1.171875 0.46875 2.671875q0 0.46875 -0.046875 0.765625q-0.046875 0.28125 -0.15625 0.46875q-0.09375 0.171875 -0.28125 0.234375q-0.171875 0.0625 -0.453125 0.0625l-7.96875 0q0.203125 1.734375 1.046875 2.515625q0.859375 0.78125 2.203125 0.78125q0.71875 0 1.234375 -0.171875q0.53125 -0.171875 0.9375 -0.390625q0.40625 -0.21875 0.734375 -0.390625q0.34375 -0.171875 0.71875 -0.171875q0.484375 0 0.75 0.359375l1.1875 1.484375q-0.625 0.734375 -1.375 1.203125q-0.734375 0.453125 -1.515625 0.71875q-0.78125 0.25 -1.5625 0.34375q-0.78125 0.109375 -1.484375 0.109375q-1.453125 0 -2.734375 -0.46875q-1.265625 -0.484375 -2.21875 -1.40625q-0.953125 -0.9375 -1.515625 -2.328125q-0.546875 -1.390625 -0.546875 -3.21875q0 -1.390625 0.46875 -2.625q0.484375 -1.25 1.359375 -2.171875q0.890625 -0.9375 2.15625 -1.484375q1.265625 -0.546875 2.84375 -0.546875zm0.078125 2.84375q-1.1875 0 -1.859375 0.671875q-0.65625 0.671875 -0.875 1.953125l5.15625 0q0 -0.5 -0.125 -0.96875q-0.125 -0.46875 -0.40625 -0.828125q-0.28125 -0.375 -0.75 -0.59375q-0.46875 -0.234375 -1.140625 -0.234375zm22.09871 0.390625q-0.15625 0.25 -0.34375 0.359375q-0.171875 0.109375 -0.453125 0.109375q-0.296875 0 -0.59375 -0.125q-0.28125 -0.125 -0.625 -0.265625q-0.34375 -0.15625 -0.765625 -0.28125q-0.421875 -0.125 -0.96875 -0.125q-0.796875 0 -1.21875 0.296875q-0.40625 0.296875 -0.40625 0.828125q0 0.390625 0.265625 0.640625q0.28125 0.25 0.734375 0.453125q0.453125 0.1875 1.015625 0.359375q0.578125 0.171875 1.171875 0.390625q0.609375 0.21875 1.171875 0.5q0.578125 0.28125 1.03125 0.703125q0.453125 0.421875 0.71875 1.03125q0.28125 0.59375 0.28125 1.4375q0 1.015625 -0.375 1.890625q-0.375 0.859375 -1.109375 1.484375q-0.734375 0.625 -1.828125 0.984375q-1.09375 0.34375 -2.5 0.34375q-0.703125 0 -1.421875 -0.140625q-0.703125 -0.125 -1.359375 -0.34375q-0.65625 -0.234375 -1.21875 -0.546875q-0.5625 -0.328125 -0.953125 -0.6875l0.953125 -1.515625q0.171875 -0.265625 0.40625 -0.40625q0.25 -0.15625 0.640625 -0.15625q0.359375 0 0.640625 0.15625q0.28125 0.15625 0.609375 0.34375q0.34375 0.1875 0.78125 0.34375q0.453125 0.15625 1.140625 0.15625q0.46875 0 0.796875 -0.09375q0.34375 -0.09375 0.546875 -0.265625q0.203125 -0.1875 0.296875 -0.390625q0.09375 -0.21875 0.09375 -0.4375q0 -0.421875 -0.28125 -0.6875q-0.28125 -0.265625 -0.734375 -0.453125q-0.453125 -0.203125 -1.03125 -0.359375q-0.578125 -0.171875 -1.1875 -0.375q-0.59375 -0.21875 -1.171875 -0.515625q-0.578125 -0.3125 -1.03125 -0.765625q-0.453125 -0.46875 -0.734375 -1.125q-0.28125 -0.671875 -0.28125 -1.609375q0 -0.890625 0.328125 -1.671875q0.34375 -0.796875 1.015625 -1.390625q0.6875 -0.609375 1.71875 -0.953125q1.03125 -0.359375 2.390625 -0.359375q0.75 0 1.453125 0.140625q0.703125 0.125 1.3125 0.375q0.609375 0.234375 1.109375 0.5625q0.515625 0.3125 0.90625 0.703125l-0.9375 1.453125zm7.541214 -3.03125l0 13.828125l-4.125 0l0 -13.828125l4.125 0zm0.484375 -3.78125q0 0.5 -0.203125 0.9375q-0.203125 0.421875 -0.546875 0.75q-0.34375 0.328125 -0.8125 0.53125q-0.453125 0.1875 -0.96875 0.1875q-0.5 0 -0.953125 -0.1875q-0.4375 -0.203125 -0.78125 -0.53125q-0.328125 -0.328125 -0.53125 -0.75q-0.1875 -0.4375 -0.1875 -0.9375q0 -0.5 0.1875 -0.9375q0.203125 -0.453125 0.53125 -0.78125q0.34375 -0.328125 0.78125 -0.515625q0.453125 -0.1875 0.953125 -0.1875q0.515625 0 0.96875 0.1875q0.46875 0.1875 0.8125 0.515625q0.34375 0.328125 0.546875 0.78125q0.203125 0.4375 0.203125 0.9375zm2.8470001 17.609375l0 -13.828125l2.5625 0q0.390625 0 0.640625 0.1875q0.265625 0.171875 0.375 0.515625l0.21875 0.75q0.359375 -0.359375 0.71875 -0.65625q0.375 -0.3125 0.8125 -0.53125q0.4375 -0.21875 0.9375 -0.34375q0.5 -0.125 1.09375 -0.125q1.25 0 2.0625 0.65625q0.828125 0.640625 1.265625 1.71875q0.34375 -0.640625 0.84375 -1.09375q0.5 -0.453125 1.078125 -0.734375q0.578125 -0.28125 1.21875 -0.40625q0.65625 -0.140625 1.296875 -0.140625q1.1875 0 2.09375 0.359375q0.921875 0.34375 1.5468903 1.015625q0.625 0.671875 0.9375 1.65625q0.328125 0.984375 0.328125 2.21875l0 8.78125l-4.1406403 0l0 -8.78125q0 -2.140625 -1.84375 -2.140625q-0.828125 0 -1.390625 0.546875q-0.546875 0.546875 -0.546875 1.59375l0 8.78125l-4.140625 0l0 -8.78125q0 -1.1875 -0.46875 -1.65625q-0.453125 -0.484375 -1.359375 -0.484375q-0.5625 0 -1.0625 0.25q-0.5 0.25 -0.9375 0.671875l0 10.0l-4.140625 0zm22.950943 4.390625l0 -18.21875l2.5625 0q0.390625 0 0.640625 0.1875q0.265625 0.171875 0.375 0.515625l0.3125 1.015625q0.390625 -0.453125 0.84375 -0.8125q0.46875 -0.359375 0.984375 -0.609375q0.53125 -0.265625 1.140625 -0.40625q0.609375 -0.15625 1.328125 -0.15625q1.078125 0 2.0 0.484375q0.921875 0.484375 1.578125 1.390625q0.671875 0.90625 1.046875 2.21875q0.390625 1.3125 0.390625 2.96875q0 1.5625 -0.4375 2.890625q-0.4375 1.3125 -1.21875 2.296875q-0.765625 0.96875 -1.859375 1.515625q-1.078125 0.546875 -2.40625 0.546875q-1.078125 0 -1.8125 -0.3125q-0.734375 -0.3125 -1.328125 -0.828125l0 5.3125l-4.140625 0zm6.75 -15.3125q-0.453125 0 -0.828125 0.09375q-0.359375 0.078125 -0.671875 0.234375q-0.3125 0.15625 -0.578125 0.40625q-0.265625 0.25 -0.53125 0.5625l0 5.859375q0.46875 0.53125 1.015625 0.734375q0.546875 0.203125 1.140625 0.203125q0.578125 0 1.046875 -0.21875q0.484375 -0.234375 0.828125 -0.734375q0.359375 -0.5 0.5625 -1.296875q0.203125 -0.796875 0.203125 -1.953125q0 -1.078125 -0.171875 -1.828125q-0.15625 -0.75 -0.4375 -1.203125q-0.28125 -0.46875 -0.6875 -0.65625q-0.390625 -0.203125 -0.890625 -0.203125zm12.922882 -9.03125l0 19.953125l-4.125 0l0 -19.953125l4.125 0zm9.253265 5.921875q1.375 0 2.515625 0.421875q1.140625 0.421875 1.953125 1.234375q0.828125 0.8125 1.28125 2.0q0.46875 1.171875 0.46875 2.671875q0 0.46875 -0.046875 0.765625q-0.046875 0.28125 -0.15625 0.46875q-0.09375 0.171875 -0.28125 0.234375q-0.171875 0.0625 -0.453125 0.0625l-7.96875 0q0.203125 1.734375 1.046875 2.515625q0.859375 0.78125 2.203125 0.78125q0.71875 0 1.234375 -0.171875q0.53125 -0.171875 0.9375 -0.390625q0.40625 -0.21875 0.734375 -0.390625q0.34375 -0.171875 0.71875 -0.171875q0.484375 0 0.75 0.359375l1.1875 1.484375q-0.625 0.734375 -1.375 1.203125q-0.734375 0.453125 -1.515625 0.71875q-0.78125 0.25 -1.5625 0.34375q-0.78125 0.109375 -1.484375 0.109375q-1.453125 0 -2.734375 -0.46875q-1.265625 -0.484375 -2.21875 -1.40625q-0.953125 -0.9375 -1.515625 -2.328125q-0.546875 -1.390625 -0.546875 -3.21875q0 -1.390625 0.46875 -2.625q0.484375 -1.25 1.359375 -2.171875q0.890625 -0.9375 2.15625 -1.484375q1.265625 -0.546875 2.84375 -0.546875zm0.078125 2.84375q-1.1875 0 -1.859375 0.671875q-0.65625 0.671875 -0.875 1.953125l5.15625 0q0 -0.5 -0.125 -0.96875q-0.125 -0.46875 -0.40625 -0.828125q-0.28125 -0.375 -0.75 -0.59375q-0.46875 -0.234375 -1.140625 -0.234375zm16.954071 0.390625q-0.15625 0.25 -0.34375 0.359375q-0.171875 0.109375 -0.453125 0.109375q-0.296875 0 -0.59375 -0.125q-0.28125 -0.125 -0.625 -0.265625q-0.34375 -0.15625 -0.765625 -0.28125q-0.421875 -0.125 -0.96875 -0.125q-0.796875 0 -1.21875 0.296875q-0.40625 0.296875 -0.40625 0.828125q0 0.390625 0.265625 0.640625q0.28125 0.25 0.734375 0.453125q0.453125 0.1875 1.015625 0.359375q0.578125 0.171875 1.171875 0.390625q0.609375 0.21875 1.171875 0.5q0.578125 0.28125 1.03125 0.703125q0.453125 0.421875 0.71875 1.03125q0.28125 0.59375 0.28125 1.4375q0 1.015625 -0.375 1.890625q-0.375 0.859375 -1.109375 1.484375q-0.734375 0.625 -1.828125 0.984375q-1.09375 0.34375 -2.5 0.34375q-0.703125 0 -1.421875 -0.140625q-0.703125 -0.125 -1.359375 -0.34375q-0.65625 -0.234375 -1.21875 -0.546875q-0.5625 -0.328125 -0.953125 -0.6875l0.953125 -1.515625q0.171875 -0.265625 0.40625 -0.40625q0.25 -0.15625 0.640625 -0.15625q0.359375 0 0.640625 0.15625q0.28125 0.15625 0.609375 0.34375q0.34375 0.1875 0.78125 0.34375q0.453125 0.15625 1.140625 0.15625q0.46875 0 0.796875 -0.09375q0.34375 -0.09375 0.546875 -0.265625q0.203125 -0.1875 0.296875 -0.390625q0.09375 -0.21875 0.09375 -0.4375q0 -0.421875 -0.28125 -0.6875q-0.28125 -0.265625 -0.734375 -0.453125q-0.453125 -0.203125 -1.03125 -0.359375q-0.578125 -0.171875 -1.1875 -0.375q-0.59375 -0.21875 -1.171875 -0.515625q-0.578125 -0.3125 -1.03125 -0.765625q-0.453125 -0.46875 -0.734375 -1.125q-0.28125 -0.671875 -0.28125 -1.609375q0 -0.890625 0.328125 -1.671875q0.34375 -0.796875 1.015625 -1.390625q0.6875 -0.609375 1.71875 -0.953125q1.03125 -0.359375 2.390625 -0.359375q0.75 0 1.453125 0.140625q0.703125 0.125 1.3125 0.375q0.609375 0.234375 1.109375 0.5625q0.515625 0.3125 0.90625 0.703125l-0.9375 1.453125zm8.134949 11.015625q-0.984375 0 -1.75 -0.28125q-0.75 -0.296875 -1.265625 -0.8125q-0.5 -0.53125 -0.765625 -1.28125q-0.265625 -0.75 -0.265625 -1.671875l0 -7.140625l-1.1875 0q-0.3125 0 -0.546875 -0.203125q-0.21875 -0.203125 -0.21875 -0.609375l0 -1.609375l2.203125 -0.4375l0.8125 -3.359375q0.15625 -0.640625 0.90625 -0.640625l2.15625 0l0 4.03125l3.359375 0l0 2.828125l-3.359375 0l0 6.859375q0 0.484375 0.234375 0.796875q0.234375 0.3125 0.671875 0.3125q0.21875 0 0.375 -0.046875q0.15625 -0.046875 0.265625 -0.109375q0.125 -0.0625 0.21875 -0.109375q0.09375 -0.046875 0.234375 -0.046875q0.1875 0 0.296875 0.09375q0.109375 0.09375 0.234375 0.265625l1.25 1.96875q-0.796875 0.59375 -1.796875 0.90625q-1.0 0.296875 -2.0625 0.296875zm19.400879 -11.015625q-0.15625 0.25 -0.34375 0.359375q-0.171875 0.109375 -0.453125 0.109375q-0.296875 0 -0.59375 -0.125q-0.28125 -0.125 -0.625 -0.265625q-0.34375 -0.15625 -0.765625 -0.28125q-0.421875 -0.125 -0.96875 -0.125q-0.796875 0 -1.21875 0.296875q-0.40625 0.296875 -0.40625 0.828125q0 0.390625 0.265625 0.640625q0.28125 0.25 0.734375 0.453125q0.453125 0.1875 1.015625 0.359375q0.578125 0.171875 1.171875 0.390625q0.609375 0.21875 1.171875 0.5q0.578125 0.28125 1.03125 0.703125q0.453125 0.421875 0.71875 1.03125q0.28125 0.59375 0.28125 1.4375q0 1.015625 -0.375 1.890625q-0.375 0.859375 -1.109375 1.484375q-0.734375 0.625 -1.828125 0.984375q-1.09375 0.34375 -2.5 0.34375q-0.703125 0 -1.421875 -0.140625q-0.703125 -0.125 -1.359375 -0.34375q-0.65625 -0.234375 -1.21875 -0.546875q-0.5625 -0.328125 -0.953125 -0.6875l0.953125 -1.515625q0.171875 -0.265625 0.40625 -0.40625q0.25 -0.15625 0.640625 -0.15625q0.359375 0 0.640625 0.15625q0.28125 0.15625 0.609375 0.34375q0.34375 0.1875 0.78125 0.34375q0.453125 0.15625 1.140625 0.15625q0.46875 0 0.796875 -0.09375q0.34375 -0.09375 0.546875 -0.265625q0.203125 -0.1875 0.296875 -0.390625q0.09375 -0.21875 0.09375 -0.4375q0 -0.421875 -0.28125 -0.6875q-0.28125 -0.265625 -0.734375 -0.453125q-0.453125 -0.203125 -1.03125 -0.359375q-0.578125 -0.171875 -1.1875 -0.375q-0.59375 -0.21875 -1.171875 -0.515625q-0.578125 -0.3125 -1.03125 -0.765625q-0.453125 -0.46875 -0.734375 -1.125q-0.28125 -0.671875 -0.28125 -1.609375q0 -0.890625 0.328125 -1.671875q0.34375 -0.796875 1.015625 -1.390625q0.6875 -0.609375 1.71875 -0.953125q1.03125 -0.359375 2.390625 -0.359375q0.75 0 1.453125 0.140625q0.703125 0.125 1.3125 0.375q0.609375 0.234375 1.109375 0.5625q0.515625 0.3125 0.90625 0.703125l-0.9375 1.453125zm13.244324 0.25q-0.1875 0.234375 -0.359375 0.375q-0.171875 0.125 -0.484375 0.125q-0.3125 0 -0.5625 -0.140625q-0.234375 -0.15625 -0.546875 -0.328125q-0.3125 -0.1875 -0.71875 -0.328125q-0.40625 -0.15625 -1.03125 -0.15625q-0.75 0 -1.3125 0.28125q-0.546875 0.28125 -0.90625 0.8125q-0.359375 0.515625 -0.53125 1.265625q-0.171875 0.75 -0.171875 1.703125q0 1.984375 0.765625 3.046875q0.765625 1.0625 2.109375 1.0625q0.71875 0 1.140625 -0.171875q0.421875 -0.1875 0.703125 -0.40625q0.296875 -0.21875 0.546875 -0.40625q0.25 -0.1875 0.625 -0.1875q0.484375 0 0.734375 0.359375l1.203125 1.484375q-0.640625 0.734375 -1.34375 1.203125q-0.703125 0.453125 -1.453125 0.71875q-0.734375 0.25 -1.484375 0.34375q-0.734375 0.109375 -1.453125 0.109375q-1.265625 0 -2.421875 -0.484375q-1.140625 -0.484375 -2.015625 -1.390625q-0.875 -0.921875 -1.390625 -2.25q-0.515625 -1.328125 -0.515625 -3.03125q0 -1.5 0.453125 -2.796875q0.453125 -1.296875 1.3125 -2.25q0.875 -0.953125 2.15625 -1.5q1.296875 -0.546875 2.984375 -0.546875q1.625 0 2.84375 0.515625q1.234375 0.515625 2.21875 1.515625l-1.09375 1.453125zm8.90802 -3.484375q1.375 0 2.515625 0.421875q1.140625 0.421875 1.953125 1.234375q0.828125 0.8125 1.28125 2.0q0.46875 1.171875 0.46875 2.671875q0 0.46875 -0.046875 0.765625q-0.046875 0.28125 -0.15625 0.46875q-0.09375 0.171875 -0.28125 0.234375q-0.171875 0.0625 -0.453125 0.0625l-7.96875 0q0.203125 1.734375 1.046875 2.515625q0.859375 0.78125 2.203125 0.78125q0.71875 0 1.234375 -0.171875q0.53125 -0.171875 0.9375 -0.390625q0.40625 -0.21875 0.734375 -0.390625q0.34375 -0.171875 0.71875 -0.171875q0.484375 0 0.75 0.359375l1.1875 1.484375q-0.625 0.734375 -1.375 1.203125q-0.734375 0.453125 -1.515625 0.71875q-0.78125 0.25 -1.5625 0.34375q-0.78125 0.109375 -1.484375 0.109375q-1.453125 0 -2.734375 -0.46875q-1.265625 -0.484375 -2.21875 -1.40625q-0.953125 -0.9375 -1.515625 -2.328125q-0.546875 -1.390625 -0.546875 -3.21875q0 -1.390625 0.46875 -2.625q0.484375 -1.25 1.359375 -2.171875q0.890625 -0.9375 2.15625 -1.484375q1.265625 -0.546875 2.84375 -0.546875zm0.078125 2.84375q-1.1875 0 -1.859375 0.671875q-0.65625 0.671875 -0.875 1.953125l5.15625 0q0 -0.5 -0.125 -0.96875q-0.125 -0.46875 -0.40625 -0.828125q-0.28125 -0.375 -0.75 -0.59375q-0.46875 -0.234375 -1.140625 -0.234375zm8.500946 11.1875l0 -13.828125l2.5625 0q0.390625 0 0.640625 0.1875q0.265625 0.171875 0.375 0.515625l0.234375 0.796875q0.40625 -0.375 0.828125 -0.6875q0.421875 -0.328125 0.90625 -0.546875q0.5 -0.21875 1.0625 -0.34375q0.5625 -0.125 1.234375 -0.125q1.125 0 2.0 0.390625q0.875 0.390625 1.46875 1.09375q0.609375 0.703125 0.90625 1.671875q0.3125 0.953125 0.3125 2.09375l0 8.78125l-4.125 0l0 -8.78125q0 -1.015625 -0.46875 -1.578125q-0.46875 -0.5625 -1.375 -0.5625q-0.671875 0 -1.28125 0.296875q-0.59375 0.28125 -1.140625 0.78125l0 9.84375l-4.140625 0zm25.007446 0q-0.578125 0 -0.890625 -0.15625q-0.296875 -0.15625 -0.5 -0.671875l-0.28125 -0.765625q-0.53125 0.453125 -1.015625 0.78125q-0.46875 0.328125 -0.984375 0.5625q-0.515625 0.234375 -1.09375 0.34375q-0.578125 0.125 -1.28125 0.125q-0.953125 0 -1.734375 -0.25q-0.765625 -0.25 -1.3125 -0.71875q-0.53125 -0.484375 -0.828125 -1.203125q-0.28125 -0.71875 -0.28125 -1.640625q0 -0.734375 0.359375 -1.5q0.375 -0.78125 1.296875 -1.40625q0.921875 -0.640625 2.484375 -1.0625q1.5625 -0.4375 3.9375 -0.484375l0 -0.59375q0 -1.203125 -0.5 -1.734375q-0.5 -0.546875 -1.421875 -0.546875q-0.734375 0 -1.203125 0.15625q-0.46875 0.15625 -0.84375 0.359375q-0.359375 0.203125 -0.703125 0.359375q-0.34375 0.15625 -0.828125 0.15625q-0.421875 0 -0.71875 -0.203125q-0.296875 -0.203125 -0.484375 -0.515625l-0.734375 -1.296875q1.25 -1.109375 2.765625 -1.640625q1.53125 -0.546875 3.28125 -0.546875q1.25 0 2.25 0.40625q1.015625 0.40625 1.703125 1.140625q0.703125 0.71875 1.078125 1.71875q0.375 1.0 0.375 2.1875l0 8.640625l-1.890625 0zm-4.75 -2.515625q0.8125 0 1.40625 -0.28125q0.59375 -0.28125 1.21875 -0.90625l0 -1.921875q-1.25 0.046875 -2.046875 0.21875q-0.796875 0.15625 -1.265625 0.40625q-0.46875 0.234375 -0.65625 0.546875q-0.171875 0.296875 -0.171875 0.65625q0 0.703125 0.390625 1.0q0.390625 0.28125 1.125 0.28125zm9.57077 2.515625l0 -13.828125l2.453125 0q0.3125 0 0.515625 0.0625q0.203125 0.046875 0.34375 0.171875q0.140625 0.109375 0.21875 0.296875q0.078125 0.1875 0.125 0.453125l0.234375 1.28125q0.75 -1.171875 1.6875 -1.84375q0.953125 -0.6875 2.078125 -0.6875q0.953125 0 1.515625 0.453125l-0.53125 3.046875q-0.046875 0.28125 -0.21875 0.390625q-0.15625 0.109375 -0.421875 0.109375q-0.21875 0 -0.53125 -0.046875q-0.3125 -0.0625 -0.765625 -0.0625q-1.640625 0 -2.5625 1.71875l0 8.484375l-4.140625 0zm15.274597 -13.828125l0 13.828125l-4.125 0l0 -13.828125l4.125 0zm0.484375 -3.78125q0 0.5 -0.203125 0.9375q-0.203125 0.421875 -0.546875 0.75q-0.34375 0.328125 -0.8125 0.53125q-0.453125 0.1875 -0.96875 0.1875q-0.5 0 -0.953125 -0.1875q-0.4375 -0.203125 -0.78125 -0.53125q-0.328125 -0.328125 -0.53125 -0.75q-0.1875 -0.4375 -0.1875 -0.9375q0 -0.5 0.1875 -0.9375q0.203125 -0.453125 0.53125 -0.78125q0.34375 -0.328125 0.78125 -0.515625q0.453125 -0.1875 0.953125 -0.1875q0.515625 0 0.96875 0.1875q0.46875 0.1875 0.8125 0.515625q0.34375 0.328125 0.546875 0.78125q0.203125 0.4375 0.203125 0.9375zm9.003235 3.578125q1.578125 0 2.875 0.5q1.296875 0.484375 2.21875 1.40625q0.921875 0.921875 1.4375 2.234375q0.515625 1.3125 0.515625 2.953125q0 1.640625 -0.515625 2.96875q-0.515625 1.328125 -1.4375 2.265625q-0.921875 0.921875 -2.21875 1.421875q-1.296875 0.5 -2.875 0.5q-1.578125 0 -2.875 -0.5q-1.296875 -0.5 -2.25 -1.421875q-0.9375 -0.9375 -1.453125 -2.265625q-0.5 -1.328125 -0.5 -2.96875q0 -1.640625 0.5 -2.953125q0.515625 -1.3125 1.453125 -2.234375q0.953125 -0.921875 2.25 -1.40625q1.296875 -0.5 2.875 -0.5zm0 11.171875q1.4375 0 2.109375 -1.0q0.671875 -1.0 0.671875 -3.0625q0 -2.046875 -0.671875 -3.046875q-0.671875 -1.0 -2.109375 -1.0q-1.453125 0 -2.140625 1.0q-0.671875 1.0 -0.671875 3.046875q0 2.0625 0.671875 3.0625q0.6875 1.0 2.140625 1.0z" fill-rule="nonzero"/><path fill="#f7893b" d="m27.850393 336.8486l80.15748 0l26.708664 26.708649l-26.708664 26.708649l-80.15748 0z" fill-rule="evenodd"/><path stroke="#b45f06" stroke-width="1.0" stroke-linejoin="round" stroke-linecap="butt" d="m27.850393 336.8486l80.15748 0l26.708664 26.708649l-26.708664 26.708649l-80.15748 0z" fill-rule="evenodd"/><path fill="#ffffff" d="m50.641884 364.77786l2.046875 0.65625q-0.46875 1.71875 -1.578125 2.546875q-1.09375 0.828125 -2.78125 0.828125q-2.078125 0 -3.4375 -1.421875q-1.34375 -1.421875 -1.34375 -3.90625q0 -2.609375 1.359375 -4.0625q1.359375 -1.453125 3.5625 -1.453125q1.921875 0 3.125 1.140625q0.71875 0.671875 1.0625 1.9375l-2.09375 0.5q-0.1875 -0.828125 -0.78125 -1.296875q-0.578125 -0.46875 -1.421875 -0.46875q-1.171875 0 -1.90625 0.84375q-0.71875 0.828125 -0.71875 2.703125q0 1.984375 0.71875 2.84375q0.71875 0.84375 1.859375 0.84375q0.84375 0 1.453125 -0.53125q0.609375 -0.546875 0.875 -1.703125zm3.9280243 3.859375l0 -10.40625l2.109375 0l0 8.640625l5.28125 0l0 1.765625l-7.390625 0zm8.827621 0l0 -10.484375l2.125 0l0 10.484375l-2.125 0zm8.143951 0l0 -10.484375l2.125 0l0 10.484375l-2.125 0zm11.040726 0l-2.015625 0l0 -3.875q0 -1.234375 -0.125 -1.59375q-0.125 -0.359375 -0.421875 -0.5625q-0.296875 -0.203125 -0.703125 -0.203125q-0.515625 0 -0.9375 0.296875q-0.40625 0.28125 -0.5625 0.75q-0.15625 0.46875 -0.15625 1.75l0 3.4375l-2.015625 0l0 -7.59375l1.875 0l0 1.109375q1.0 -1.28125 2.5 -1.28125q0.671875 0 1.21875 0.234375q0.546875 0.234375 0.828125 0.609375q0.296875 0.375 0.40625 0.84375q0.109375 0.46875 0.109375 1.359375l0 4.71875zm1.9838715 -7.59375l1.875 0l0 1.109375q0.359375 -0.578125 0.984375 -0.921875q0.625 -0.359375 1.375 -0.359375q1.328125 0 2.25 1.03125q0.921875 1.03125 0.921875 2.890625q0 1.90625 -0.9375 2.96875q-0.921875 1.046875 -2.25 1.046875q-0.625 0 -1.140625 -0.25q-0.5 -0.25 -1.078125 -0.859375l0 3.828125l-2.0 0l0 -10.484375zm1.984375 3.671875q0 1.28125 0.5 1.890625q0.515625 0.609375 1.25 0.609375q0.703125 0 1.15625 -0.5625q0.46875 -0.5625 0.46875 -1.84375q0 -1.203125 -0.484375 -1.78125q-0.46875 -0.578125 -1.1875 -0.578125q-0.734375 0 -1.21875 0.578125q-0.484375 0.5625 -0.484375 1.6875zm12.015121 3.921875l0 -1.140625q-0.40625 0.609375 -1.09375 0.96875q-0.671875 0.34375 -1.421875 0.34375q-0.765625 0 -1.375 -0.328125q-0.609375 -0.34375 -0.875 -0.953125q-0.265625 -0.609375 -0.265625 -1.6875l0 -4.796875l2.0 0l0 3.484375q0 1.609375 0.109375 1.96875q0.109375 0.359375 0.40625 0.578125q0.296875 0.203125 0.75 0.203125q0.515625 0 0.921875 -0.28125q0.40625 -0.28125 0.546875 -0.703125q0.15625 -0.421875 0.15625 -2.046875l0 -3.203125l2.015625 0l0 7.59375l-1.875 0zm7.4369965 -7.59375l0 1.59375l-1.375 0l0 3.0625q0 0.9375 0.03125 1.09375q0.046875 0.140625 0.1875 0.25q0.140625 0.09375 0.34375 0.09375q0.28125 0 0.8125 -0.1875l0.171875 1.5625q-0.703125 0.296875 -1.59375 0.296875q-0.546875 0 -0.984375 -0.171875q-0.421875 -0.1875 -0.640625 -0.46875q-0.203125 -0.296875 -0.28125 -0.796875q-0.0625 -0.359375 -0.0625 -1.421875l0 -3.3125l-0.921875 0l0 -1.59375l0.921875 0l0 -1.515625l2.015625 -1.171875l0 2.6875l1.375 0z" fill-rule="nonzero"/><path fill="#f7893b" d="m222.11559 322.74377l0 0c0 -4.5082397 3.6546478 -8.162903 8.162888 -8.162903l90.540375 0c2.164917 0 4.2411804 0.86001587 5.7720337 2.3908691c1.5308228 1.5308228 2.3908386 3.6070862 2.3908386 5.7720337l0 32.650574c0 4.5082397 -3.6546326 8.162903 -8.162872 8.162903l-90.540375 0l0 0c-4.5082397 0 -8.162888 -3.654663 -8.162888 -8.162903z" fill-rule="evenodd"/><path stroke="#b45f06" stroke-width="1.0" stroke-linejoin="round" stroke-linecap="butt" d="m222.11559 322.74377l0 0c0 -4.5082397 3.6546478 -8.162903 8.162888 -8.162903l90.540375 0c2.164917 0 4.2411804 0.86001587 5.7720337 2.3908691c1.5308228 1.5308228 2.3908386 3.6070862 2.3908386 5.7720337l0 32.650574c0 4.5082397 -3.6546326 8.162903 -8.162872 8.162903l-90.540375 0l0 0c-4.5082397 0 -8.162888 -3.654663 -8.162888 -8.162903z" fill-rule="evenodd"/><path fill="#ffffff" d="m249.44319 331.69467l2.25 -0.21875q0.203125 1.140625 0.828125 1.671875q0.625 0.53125 1.671875 0.53125q1.125 0 1.6875 -0.46875q0.56248474 -0.484375 0.56248474 -1.109375q0 -0.40625 -0.234375 -0.6875q-0.23435974 -0.296875 -0.82810974 -0.5q-0.40625 -0.140625 -1.859375 -0.5q-1.859375 -0.46875 -2.609375 -1.140625q-1.046875 -0.9375 -1.046875 -2.296875q0 -0.875 0.484375 -1.640625q0.5 -0.765625 1.4375 -1.15625q0.9375 -0.40625 2.25 -0.40625q2.1562347 0 3.2499847 0.953125q1.09375 0.9375 1.140625 2.515625l-2.3125 0.109375q-0.14060974 -0.890625 -0.64060974 -1.265625q-0.484375 -0.390625 -1.453125 -0.390625q-1.015625 0 -1.578125 0.40625q-0.375 0.265625 -0.375 0.71875q0 0.40625 0.34375 0.6875q0.4375 0.375 2.125 0.78125q1.6874847 0.390625 2.4999847 0.8125q0.8125 0.421875 1.265625 1.171875q0.453125 0.734375 0.453125 1.8125q0 0.984375 -0.546875 1.84375q-0.546875 0.859375 -1.546875 1.28125q-0.99998474 0.421875 -2.4843597 0.421875q-2.171875 0 -3.34375 -1.0q-1.15625 -1.015625 -1.390625 -2.9375zm16.04686 1.09375l2.1875 0.359375q-0.421875 1.203125 -1.328125 1.84375q-0.90625 0.625 -2.28125 0.625q-2.15625 0 -3.203125 -1.421875q-0.8125 -1.125 -0.8125 -2.859375q0 -2.0625 1.078125 -3.21875q1.078125 -1.171875 2.71875 -1.171875q1.859375 0 2.921875 1.21875q1.078125 1.21875 1.03125 3.75l-5.5 0q0.015625 0.96875 0.515625 1.515625q0.515625 0.546875 1.28125 0.546875q0.515625 0 0.859375 -0.28125q0.359375 -0.28125 0.53125 -0.90625zm0.125 -2.21875q-0.015625 -0.953125 -0.484375 -1.453125q-0.46875 -0.5 -1.140625 -0.5q-0.71875 0 -1.1875 0.53125q-0.46875 0.515625 -0.46875 1.421875l3.28125 0zm5.6171875 -0.90625l-2.0 -0.359375q0.34375 -1.203125 1.15625 -1.78125q0.828125 -0.578125 2.4375 -0.578125q1.46875 0 2.1875 0.34375q0.71875 0.34375 1.015625 0.890625q0.296875 0.53125 0.296875 1.953125l-0.03125 2.5625q0 1.09375 0.109375 1.625q0.109375 0.515625 0.390625 1.109375l-2.171875 0q-0.078125 -0.21875 -0.203125 -0.65625q-0.0625 -0.1875 -0.078125 -0.25q-0.5625 0.546875 -1.203125 0.828125q-0.640625 0.265625 -1.375 0.265625q-1.28125 0 -2.015625 -0.6875q-0.734375 -0.703125 -0.734375 -1.765625q0 -0.703125 0.328125 -1.25q0.34375 -0.5625 0.9375 -0.84375q0.609375 -0.296875 1.75 -0.515625q1.546875 -0.296875 2.140625 -0.546875l0 -0.21875q0 -0.625 -0.3125 -0.890625q-0.3125 -0.28125 -1.1875 -0.28125q-0.578125 0 -0.90625 0.234375q-0.328125 0.234375 -0.53125 0.8125zm2.9375 1.78125q-0.421875 0.140625 -1.34375 0.34375q-0.90625 0.1875 -1.1875 0.375q-0.4375 0.296875 -0.4375 0.765625q0 0.46875 0.34375 0.8125q0.34375 0.328125 0.875 0.328125q0.59375 0 1.140625 -0.390625q0.390625 -0.296875 0.515625 -0.734375q0.09375 -0.28125 0.09375 -1.0625l0 -0.4375zm6.4140625 3.984375l-2.1875 0l0 -8.296875l2.03125 0l0 1.171875q0.53125 -0.828125 0.9375 -1.09375q0.421875 -0.265625 0.953125 -0.265625q0.75 0 1.453125 0.40625l-0.6875 1.921875q-0.546875 -0.359375 -1.03125 -0.359375q-0.453125 0 -0.78125 0.25q-0.3125 0.25 -0.5 0.921875q-0.1875 0.65625 -0.1875 2.78125l0 2.5625zm11.3671875 -5.84375l-2.171875 0.390625q-0.109375 -0.65625 -0.5 -0.984375q-0.375 -0.328125 -1.0 -0.328125q-0.8125 0 -1.3125 0.578125q-0.484375 0.5625 -0.484375 1.890625q0 1.46875 0.5 2.078125q0.5 0.609375 1.328125 0.609375q0.625 0 1.015625 -0.34375q0.40625 -0.359375 0.578125 -1.234375l2.15625 0.375q-0.34375 1.484375 -1.296875 2.25q-0.953125 0.75 -2.546875 0.75q-1.828125 0 -2.90625 -1.140625q-1.078125 -1.15625 -1.078125 -3.1875q0 -2.0625 1.078125 -3.203125q1.09375 -1.140625 2.9375 -1.140625q1.515625 0 2.40625 0.65625q0.90625 0.640625 1.296875 1.984375zm3.8515625 -5.609375l0 4.203125q1.0625 -1.234375 2.53125 -1.234375q0.765625 0 1.375 0.28125q0.609375 0.28125 0.90625 0.71875q0.3125 0.4375 0.421875 0.96875q0.125 0.53125 0.125 1.640625l0 4.875l-2.203125 0l0 -4.390625q0 -1.296875 -0.125 -1.640625q-0.125 -0.359375 -0.4375 -0.5625q-0.3125 -0.21875 -0.796875 -0.21875q-0.546875 0 -0.984375 0.265625q-0.421875 0.265625 -0.625 0.8125q-0.1875 0.53125 -0.1875 1.578125l0 4.15625l-2.203125 0l0 -11.453125l2.203125 0z" fill-rule="nonzero"/><path fill="#ffffff" d="m242.91975 342.97592l4.234375 0q1.421875 0 2.171875 0.21875q1.015625 0.296875 1.734375 1.0625q0.71875 0.75 1.09375 1.84375q0.375 1.09375 0.375 2.703125q0 1.421875 -0.359375 2.4375q-0.421875 1.25 -1.21875 2.03125q-0.609375 0.578125 -1.625 0.90625q-0.765625 0.25 -2.046875 0.25l-4.359375 0l0 -11.453125zm2.3125 1.9375l0 7.578125l1.734375 0q0.96875 0 1.390625 -0.109375q0.5625 -0.140625 0.9375 -0.46875q0.375 -0.34375 0.609375 -1.109375q0.234375 -0.765625 0.234375 -2.09375q0 -1.328125 -0.234375 -2.03125q-0.234375 -0.71875 -0.65625 -1.109375q-0.421875 -0.40625 -1.078125 -0.546875q-0.484375 -0.109375 -1.890625 -0.109375l-1.046875 0zm8.7265625 5.25q0 -1.09375 0.53125 -2.109375q0.546875 -1.03125 1.5312347 -1.5625q1.0 -0.546875 2.21875 -0.546875q1.875 0 3.078125 1.21875q1.203125 1.21875 1.203125 3.09375q0 1.875 -1.21875 3.125q-1.203125 1.234375 -3.046875 1.234375q-1.140625 0 -2.1875 -0.515625q-1.0312347 -0.515625 -1.5781097 -1.515625q-0.53125 -1.0 -0.53125 -2.421875zm2.2499847 0.109375q0 1.234375 0.578125 1.890625q0.59375 0.65625 1.453125 0.65625q0.859375 0 1.4375 -0.65625q0.59375 -0.65625 0.59375 -1.90625q0 -1.21875 -0.59375 -1.875q-0.578125 -0.65625 -1.4375 -0.65625q-0.859375 0 -1.453125 0.65625q-0.578125 0.65625 -0.578125 1.890625zm7.8671875 -4.140625l2.03125 0l0 1.125q1.078125 -1.3125 2.578125 -1.3125q0.796875 0 1.375 0.328125q0.59375 0.328125 0.96875 0.984375q0.546875 -0.65625 1.171875 -0.984375q0.640625 -0.328125 1.359375 -0.328125q0.921875 0 1.546875 0.375q0.640625 0.359375 0.953125 1.078125q0.21875 0.53125 0.21875 1.71875l0 5.3125l-2.1875 0l0 -4.75q0 -1.234375 -0.234375 -1.59375q-0.296875 -0.46875 -0.9375 -0.46875q-0.453125 0 -0.859375 0.28125q-0.40625 0.28125 -0.59375 0.828125q-0.171875 0.546875 -0.171875 1.71875l0 3.984375l-2.203125 0l0 -4.546875q0 -1.21875 -0.125 -1.5625q-0.109375 -0.359375 -0.359375 -0.53125q-0.234375 -0.171875 -0.65625 -0.171875q-0.515625 0 -0.921875 0.28125q-0.40625 0.265625 -0.578125 0.78125q-0.171875 0.515625 -0.171875 1.71875l0 4.03125l-2.203125 0l0 -8.296875zm16.039062 2.53125l-2.0 -0.359375q0.34375 -1.203125 1.15625 -1.78125q0.828125 -0.578125 2.4375 -0.578125q1.46875 0 2.1875 0.34375q0.71875 0.34375 1.015625 0.890625q0.296875 0.53125 0.296875 1.953125l-0.03125 2.5625q0 1.09375 0.109375 1.625q0.109375 0.515625 0.390625 1.109375l-2.171875 0q-0.078125 -0.21875 -0.203125 -0.65625q-0.0625 -0.1875 -0.078125 -0.25q-0.5625 0.546875 -1.203125 0.828125q-0.640625 0.265625 -1.375 0.265625q-1.28125 0 -2.015625 -0.6875q-0.734375 -0.703125 -0.734375 -1.765625q0 -0.703125 0.328125 -1.25q0.34375 -0.5625 0.9375 -0.84375q0.609375 -0.296875 1.75 -0.515625q1.546875 -0.296875 2.140625 -0.546875l0 -0.21875q0 -0.625 -0.3125 -0.890625q-0.3125 -0.28125 -1.1875 -0.28125q-0.578125 0 -0.90625 0.234375q-0.328125 0.234375 -0.53125 0.8125zm2.9375 1.78125q-0.421875 0.140625 -1.34375 0.34375q-0.90625 0.1875 -1.1875 0.375q-0.4375 0.296875 -0.4375 0.765625q0 0.46875 0.34375 0.8125q0.34375 0.328125 0.875 0.328125q0.59375 0 1.140625 -0.390625q0.390625 -0.296875 0.515625 -0.734375q0.09375 -0.28125 0.09375 -1.0625l0 -0.4375zm4.3203125 -5.4375l0 -2.03125l2.1875 0l0 2.03125l-2.1875 0zm0 9.421875l0 -8.296875l2.1875 0l0 8.296875l-2.1875 0zm11.9921875 0l-2.203125 0l0 -4.234375q0 -1.34375 -0.140625 -1.734375q-0.140625 -0.40625 -0.453125 -0.625q-0.3125 -0.21875 -0.765625 -0.21875q-0.5625 0 -1.015625 0.3125q-0.453125 0.3125 -0.625 0.828125q-0.171875 0.515625 -0.171875 1.90625l0 3.765625l-2.1875 0l0 -8.296875l2.03125 0l0 1.21875q1.09375 -1.40625 2.734375 -1.40625q0.734375 0 1.328125 0.265625q0.609375 0.25 0.90625 0.65625q0.3125 0.40625 0.4375 0.921875q0.125 0.515625 0.125 1.484375l0 5.15625zm1.4453125 -2.375l2.203125 -0.328125q0.140625 0.640625 0.5625 0.96875q0.4375 0.328125 1.21875 0.328125q0.84375 0 1.28125 -0.3125q0.28125 -0.21875 0.28125 -0.578125q0 -0.25 -0.15625 -0.421875q-0.15625 -0.15625 -0.734375 -0.28125q-2.65625 -0.59375 -3.359375 -1.078125q-0.984375 -0.671875 -0.984375 -1.859375q0 -1.078125 0.84375 -1.8125q0.859375 -0.734375 2.640625 -0.734375q1.703125 0 2.53125 0.5625q0.828125 0.546875 1.140625 1.625l-2.0625 0.390625q-0.140625 -0.484375 -0.515625 -0.734375q-0.359375 -0.265625 -1.046875 -0.265625q-0.875 0 -1.25 0.234375q-0.25 0.171875 -0.25 0.453125q0 0.234375 0.21875 0.390625q0.296875 0.21875 2.046875 0.625q1.765625 0.390625 2.453125 0.96875q0.6875 0.59375 0.6875 1.640625q0 1.140625 -0.953125 1.96875q-0.953125 0.8125 -2.8125 0.8125q-1.703125 0 -2.6875 -0.6875q-0.984375 -0.6875 -1.296875 -1.875z" fill-rule="nonzero"/><path fill="#f7893b" d="m527.6286 281.56445l0 0c0 -4.5082397 3.654663 -8.162872 8.162903 -8.162872l84.14667 0c2.164917 0 4.241211 0.86001587 5.7720337 2.3908386c1.5308228 1.5308533 2.3908691 3.6071167 2.3908691 5.7720337l0 32.650604c0 4.5082397 -3.654663 8.162903 -8.162903 8.162903l-84.14667 0c-4.5082397 0 -8.162903 -3.654663 -8.162903 -8.162903z" fill-rule="evenodd"/><path stroke="#b45f06" stroke-width="1.0" stroke-linejoin="round" stroke-linecap="butt" d="m527.6286 281.56445l0 0c0 -4.5082397 3.654663 -8.162872 8.162903 -8.162872l84.14667 0c2.164917 0 4.241211 0.86001587 5.7720337 2.3908386c1.5308228 1.5308533 2.3908691 3.6071167 2.3908691 5.7720337l0 32.650604c0 4.5082397 -3.654663 8.162903 -8.162903 8.162903l-84.14667 0c-4.5082397 0 -8.162903 -3.654663 -8.162903 -8.162903z" fill-rule="evenodd"/><path fill="#ffffff" d="m564.7857 294.68976l0 -9.546875l6.53125 0l0 1.625l-4.609375 0l0 2.25l3.984375 0l0 1.625l-3.984375 0l0 4.046875l-1.921875 0zm8.110107 -7.84375l0 -1.703125l1.828125 0l0 1.703125l-1.828125 0zm0 7.84375l0 -6.90625l1.828125 0l0 6.90625l-1.828125 0zm9.999817 0l-1.828125 0l0 -3.53125q0 -1.109375 -0.125 -1.4375q-0.109375 -0.328125 -0.375 -0.515625q-0.265625 -0.1875 -0.640625 -0.1875q-0.46875 0 -0.859375 0.265625q-0.375 0.265625 -0.515625 0.703125q-0.140625 0.421875 -0.140625 1.578125l0 3.125l-1.828125 0l0 -6.90625l1.703125 0l0 1.015625q0.90625 -1.171875 2.28125 -1.171875q0.609375 0 1.109375 0.21875q0.5 0.21875 0.75 0.5625q0.265625 0.328125 0.359375 0.765625q0.109375 0.421875 0.109375 1.21875l0 4.296875zm8.188232 0l-1.703125 0l0 -1.015625q-0.421875 0.59375 -1.0 0.890625q-0.578125 0.28125 -1.15625 0.28125q-1.1875 0 -2.046875 -0.953125q-0.84375 -0.96875 -0.84375 -2.6875q0 -1.75 0.828125 -2.65625q0.828125 -0.921875 2.09375 -0.921875q1.15625 0 2.0 0.953125l0 -3.4375l1.828125 0l0 9.546875zm-4.875 -3.609375q0 1.109375 0.296875 1.609375q0.4375 0.71875 1.234375 0.71875q0.640625 0 1.078125 -0.53125q0.4375 -0.546875 0.4375 -1.609375q0 -1.203125 -0.4375 -1.71875q-0.421875 -0.53125 -1.09375 -0.53125q-0.640625 0 -1.078125 0.515625q-0.4375 0.515625 -0.4375 1.546875z" fill-rule="nonzero"/><path fill="#ffffff" d="m544.37744 305.971q0 -1.453125 0.4375 -2.4375q0.328125 -0.734375 0.890625 -1.3125q0.5625 -0.578125 1.234375 -0.859375q0.890625 -0.375 2.046875 -0.375q2.109375 0 3.375 1.3125q1.265625 1.296875 1.265625 3.640625q0 2.296875 -1.25 3.609375q-1.25 1.296875 -3.359375 1.296875q-2.125 0 -3.390625 -1.296875q-1.25 -1.296875 -1.25 -3.578125zm1.984375 -0.0625q0 1.625 0.75 2.46875q0.75 0.828125 1.90625 0.828125q1.140625 0 1.875 -0.828125q0.75 -0.828125 0.75 -2.484375q0 -1.640625 -0.71875 -2.453125q-0.71875 -0.8125 -1.90625 -0.8125q-1.203125 0 -1.9375 0.828125q-0.71875 0.8125 -0.71875 2.453125zm8.710815 -2.125l1.703125 0l0 1.015625q0.328125 -0.53125 0.890625 -0.84375q0.578125 -0.328125 1.265625 -0.328125q1.203125 0 2.03125 0.9375q0.84375 0.9375 0.84375 2.625q0 1.734375 -0.84375 2.703125q-0.84375 0.953125 -2.046875 0.953125q-0.578125 0 -1.046875 -0.21875q-0.453125 -0.234375 -0.96875 -0.796875l0 3.484375l-1.828125 0l0 -9.53125zm1.8125 3.328125q0 1.171875 0.453125 1.734375q0.46875 0.546875 1.125 0.546875q0.640625 0 1.0625 -0.5q0.421875 -0.515625 0.421875 -1.6875q0 -1.078125 -0.4375 -1.609375q-0.4375 -0.53125 -1.078125 -0.53125q-0.671875 0 -1.109375 0.515625q-0.4375 0.515625 -0.4375 1.53125zm10.375732 1.375l1.828125 0.3125q-0.34375 1.0 -1.109375 1.53125q-0.765625 0.515625 -1.890625 0.515625q-1.8125 0 -2.671875 -1.171875q-0.6875 -0.953125 -0.6875 -2.390625q0 -1.71875 0.890625 -2.6875q0.90625 -0.96875 2.28125 -0.96875q1.546875 0 2.4375 1.015625q0.890625 1.015625 0.84375 3.125l-4.578125 0q0.015625 0.8125 0.4375 1.265625q0.421875 0.453125 1.0625 0.453125q0.421875 0 0.71875 -0.234375q0.296875 -0.234375 0.4375 -0.765625zm0.109375 -1.84375q-0.015625 -0.796875 -0.40625 -1.203125q-0.390625 -0.421875 -0.953125 -0.421875q-0.59375 0 -0.984375 0.4375q-0.390625 0.4375 -0.390625 1.1875l2.734375 0zm9.599976 4.046875l-1.828125 0l0 -3.53125q0 -1.109375 -0.125 -1.4375q-0.109375 -0.328125 -0.375 -0.515625q-0.265625 -0.1875 -0.640625 -0.1875q-0.46875 0 -0.859375 0.265625q-0.375 0.265625 -0.515625 0.703125q-0.140625 0.421875 -0.140625 1.578125l0 3.125l-1.828125 0l0 -6.90625l1.703125 0l0 1.015625q0.90625 -1.171875 2.28125 -1.171875q0.609375 0 1.109375 0.21875q0.5 0.21875 0.75 0.5625q0.265625 0.328125 0.359375 0.765625q0.109375 0.421875 0.109375 1.21875l0 4.296875zm1.8601074 0l0 -9.546875l3.09375 0q1.75 0 2.296875 0.15625q0.8125 0.203125 1.359375 0.921875q0.5625 0.71875 0.5625 1.859375q0 0.875 -0.328125 1.484375q-0.3125 0.59375 -0.8125 0.9375q-0.484375 0.34375 -0.984375 0.453125q-0.703125 0.140625 -2.0 0.140625l-1.265625 0l0 3.59375l-1.921875 0zm1.921875 -7.921875l0 2.703125l1.0625 0q1.140625 0 1.515625 -0.140625q0.390625 -0.15625 0.609375 -0.46875q0.21875 -0.328125 0.21875 -0.75q0 -0.515625 -0.3125 -0.859375q-0.296875 -0.34375 -0.765625 -0.421875q-0.34375 -0.0625 -1.390625 -0.0625l-0.9375 0zm6.5303955 4.375q0 -0.921875 0.453125 -1.765625q0.453125 -0.859375 1.265625 -1.296875q0.828125 -0.453125 1.84375 -0.453125q1.5625 0 2.5625 1.015625q1.015625 1.015625 1.015625 2.578125q0 1.5625 -1.015625 2.59375q-1.015625 1.03125 -2.546875 1.03125q-0.953125 0 -1.8125 -0.421875q-0.859375 -0.4375 -1.3125 -1.265625q-0.453125 -0.828125 -0.453125 -2.015625zm1.875 0.09375q0 1.03125 0.484375 1.578125q0.5 0.546875 1.203125 0.546875q0.71875 0 1.203125 -0.546875q0.484375 -0.546875 0.484375 -1.59375q0 -1.015625 -0.484375 -1.5625q-0.484375 -0.546875 -1.203125 -0.546875q-0.703125 0 -1.203125 0.546875q-0.484375 0.546875 -0.484375 1.578125zm8.438232 3.453125l-1.828125 0l0 -6.90625l1.703125 0l0 0.984375q0.4375 -0.703125 0.78125 -0.921875q0.34375 -0.21875 0.796875 -0.21875q0.625 0 1.203125 0.34375l-0.5625 1.59375q-0.46875 -0.296875 -0.859375 -0.296875q-0.390625 0 -0.65625 0.21875q-0.265625 0.203125 -0.421875 0.765625q-0.15625 0.546875 -0.15625 2.296875l0 2.140625zm6.6086426 -6.90625l0 1.453125l-1.25 0l0 2.78125q0 0.84375 0.03125 0.984375q0.046875 0.140625 0.171875 0.234375q0.125 0.09375 0.3125 0.09375q0.25 0 0.734375 -0.171875l0.15625 1.421875q-0.640625 0.265625 -1.453125 0.265625q-0.484375 0 -0.890625 -0.15625q-0.390625 -0.171875 -0.578125 -0.4375q-0.1875 -0.265625 -0.265625 -0.71875q-0.046875 -0.3125 -0.046875 -1.28125l0 -3.015625l-0.84375 0l0 -1.453125l0.84375 0l0 -1.375l1.828125 -1.078125l0 2.453125l1.25 0zm0.6258545 4.9375l1.828125 -0.28125q0.125 0.53125 0.484375 0.8125q0.359375 0.265625 1.0 0.265625q0.703125 0 1.0625 -0.25q0.25 -0.1875 0.25 -0.484375q0 -0.21875 -0.140625 -0.359375q-0.125 -0.125 -0.609375 -0.234375q-2.203125 -0.484375 -2.796875 -0.890625q-0.828125 -0.5625 -0.828125 -1.5625q0 -0.890625 0.703125 -1.5q0.71875 -0.609375 2.203125 -0.609375q1.421875 0 2.109375 0.46875q0.703125 0.453125 0.953125 1.359375l-1.71875 0.3125q-0.109375 -0.40625 -0.421875 -0.609375q-0.3125 -0.21875 -0.890625 -0.21875q-0.71875 0 -1.03125 0.203125q-0.203125 0.140625 -0.203125 0.359375q0 0.203125 0.1875 0.34375q0.234375 0.171875 1.6875 0.515625q1.46875 0.328125 2.0625 0.8125q0.5625 0.484375 0.5625 1.359375q0 0.953125 -0.796875 1.640625q-0.78125 0.671875 -2.34375 0.671875q-1.40625 0 -2.234375 -0.5625q-0.828125 -0.578125 -1.078125 -1.5625z" fill-rule="nonzero"/><path fill="#000000" fill-opacity="0.0" d="m378.41483 297.88715l74.60672 0l0 0.06298828l74.62164 0" fill-rule="evenodd"/><path stroke="#1464a5" stroke-width="1.0" stroke-linejoin="round" stroke-linecap="butt" d="m378.41483 297.88715l74.60672 0l0 0.06298828l71.19452 0" fill-rule="evenodd"/><path fill="#1464a5" stroke="#1464a5" stroke-width="1.0" stroke-linecap="butt" d="m524.21606 297.95013l-1.1245728 1.1245728l3.0897827 -1.1245728l-3.0897827 -1.1245728z" fill-rule="evenodd"/><path fill="#2dcccd" d="m346.9144 321.84515l0 0c-3.4794617 0 -6.3000793 -10.726379 -6.3000793 -23.958008c0 -13.231659 2.8206177 -23.958008 6.3000793 -23.958008l25.200348 0c3.4794312 0 6.3000793 10.726349 6.3000793 23.958008c0 13.231628 -2.8206482 23.958008 -6.3000793 23.958008z" fill-rule="evenodd"/><path fill="#000000" fill-opacity="0.0" d="m346.9144 273.92914l0 0c3.4794312 0 6.3000793 10.726349 6.3000793 23.958008c0 13.231628 -2.8206482 23.958008 -6.3000793 23.958008" fill-rule="evenodd"/><path fill="#000000" fill-opacity="0.0" d="m346.9144 321.84515l0 0c-3.4794617 0 -6.3000793 -10.726379 -6.3000793 -23.958008c0 -13.231659 2.8206177 -23.958008 6.3000793 -23.958008l25.200348 0c3.4794312 0 6.3000793 10.726349 6.3000793 23.958008c0 13.231628 -2.8206482 23.958008 -6.3000793 23.958008z" fill-rule="evenodd"/><path stroke="#02a5a5" stroke-width="1.0" stroke-linejoin="round" stroke-linecap="butt" d="m346.9144 273.92914l0 0c3.4794312 0 6.3000793 10.726349 6.3000793 23.958008c0 13.231628 -2.8206482 23.958008 -6.3000793 23.958008" fill-rule="evenodd"/><path stroke="#02a5a5" stroke-width="1.0" stroke-linejoin="round" stroke-linecap="butt" d="m346.9144 321.84515l0 0c-3.4794617 0 -6.3000793 -10.726379 -6.3000793 -23.958008c0 -13.231659 2.8206177 -23.958008 6.3000793 -23.958008l25.200348 0c3.4794312 0 6.3000793 10.726349 6.3000793 23.958008c0 13.231628 -2.8206482 23.958008 -6.3000793 23.958008z" fill-rule="evenodd"/><path fill="#000000" fill-opacity="0.0" d="m134.71654 363.55725l43.699905 0l0 -24.472443l43.70166 0" fill-rule="evenodd"/><path stroke="#1464a5" stroke-width="1.0" stroke-linejoin="round" stroke-linecap="butt" d="m134.71654 363.55725l43.699905 0l0 -24.472443l40.274582 0" fill-rule="evenodd"/><path fill="#1464a5" stroke="#1464a5" stroke-width="1.0" stroke-linecap="butt" d="m218.69102 339.0848l-1.124588 1.1245728l3.0897675 -1.1245728l-3.0897675 -1.1245728z" fill-rule="evenodd"/><path fill="#000000" fill-opacity="0.0" d="m519.99713 297.85565l0 0.03149414l0.06298828 0l0 0.03149414" fill-rule="evenodd"/><path stroke="#1464a5" stroke-width="1.0" stroke-linejoin="round" stroke-linecap="butt" d="m519.99713 297.85565l0 0.03149414l0.06298828 0l0 0.03149414" fill-rule="evenodd"/><path fill="#1973b8" d="m7.0138445 391.23096c0 2.6614075 12.543078 4.8189087 28.01575 4.8189087c15.472668 0 28.015747 -2.1575012 28.015747 -4.8189087l0 28.913391c0 2.6614075 -12.543079 4.8189087 -28.015747 4.8189087c-15.4726715 0 -28.01575 -2.1575012 -28.01575 -4.8189087z" fill-rule="evenodd"/><path fill="#75abd4" d="m7.0138445 391.23096c0 -2.661377 12.543078 -4.818878 28.01575 -4.818878c15.472668 0 28.015747 2.1575012 28.015747 4.818878l0 0c0 2.6614075 -12.543079 4.8189087 -28.015747 4.8189087c-15.4726715 0 -28.01575 -2.1575012 -28.01575 -4.8189087z" fill-rule="evenodd"/><path fill="#000000" fill-opacity="0.0" d="m63.04534 391.23096l0 0c0 2.6614075 -12.543079 4.8189087 -28.015747 4.8189087c-15.4726715 0 -28.01575 -2.1575012 -28.01575 -4.8189087c0 -2.661377 12.543078 -4.818878 28.01575 -4.818878c15.472668 0 28.015747 2.1575012 28.015747 4.818878l0 28.913391c0 2.6614075 -12.543079 4.8189087 -28.015747 4.8189087c-15.4726715 0 -28.01575 -2.1575012 -28.01575 -4.8189087l0 -28.913391" fill-rule="evenodd"/><path stroke="#1464a5" stroke-width="1.0" stroke-linejoin="round" stroke-linecap="butt" d="m63.04534 391.23096l0 0c0 2.6614075 -12.543079 4.8189087 -28.015747 4.8189087c-15.4726715 0 -28.01575 -2.1575012 -28.01575 -4.8189087c0 -2.661377 12.543078 -4.818878 28.01575 -4.818878c15.472668 0 28.015747 2.1575012 28.015747 4.818878l0 28.913391c0 2.6614075 -12.543079 4.8189087 -28.015747 4.8189087c-15.4726715 0 -28.01575 -2.1575012 -28.01575 -4.8189087l0 -28.913391" fill-rule="evenodd"/><path fill="#ffffff" d="m31.37297 409.39713l1.859375 0.578125q-0.421875 1.5625 -1.421875 2.328125q-1.0 0.75 -2.53125 0.75q-1.90625 0 -3.140625 -1.296875q-1.21875 -1.296875 -1.21875 -3.546875q0 -2.375 1.234375 -3.6875q1.234375 -1.328125 3.234375 -1.328125q1.75 0 2.84375 1.03125q0.65625 0.609375 0.984375 1.765625l-1.90625 0.453125q-0.171875 -0.75 -0.71875 -1.171875q-0.53125 -0.4375 -1.296875 -0.4375q-1.0625 0 -1.734375 0.765625q-0.65625 0.765625 -0.65625 2.46875q0 1.8125 0.65625 2.578125q0.65625 0.765625 1.6875 0.765625q0.78125 0 1.328125 -0.484375q0.546875 -0.484375 0.796875 -1.53125zm3.5626526 3.5l0 -9.46875l1.9375 0l0 7.859375l4.781246 0l0 1.609375l-6.718746 0zm8.031979 0l0 -9.546875l1.9375 0l0 9.546875l-1.9375 0z" fill-rule="nonzero"/><path fill="#fce5cd" d="m27.850393 465.40158l587.03937 0l22.75592 22.75589l-22.75592 22.75592l-587.03937 0l22.755907 -22.75592z" fill-rule="evenodd"/><path stroke="#b45f06" stroke-width="1.0" stroke-linejoin="round" stroke-linecap="butt" d="m27.850393 465.40158l587.03937 0l22.75592 22.75589l-22.75592 22.75592l-587.03937 0l22.755907 -22.75592z" fill-rule="evenodd"/><path fill="#666666" d="m294.69775 481.7181l4.9375 0q1.65625 0 2.53125 0.265625q1.1875 0.34375 2.015625 1.234375q0.84375 0.875 1.28125 2.15625q0.4375 1.28125 0.4375 3.15625q0 1.640625 -0.40625 2.84375q-0.5 1.453125 -1.4375 2.359375q-0.703125 0.671875 -1.890625 1.0625q-0.890625 0.28125 -2.390625 0.28125l-5.078125 0l0 -13.359375zm2.703125 2.265625l0 8.84375l2.015625 0q1.125 0 1.625 -0.125q0.65625 -0.171875 1.078125 -0.5625q0.4375 -0.390625 0.703125 -1.28125q0.28125 -0.90625 0.28125 -2.453125q0 -1.546875 -0.28125 -2.375q-0.265625 -0.828125 -0.765625 -1.28125q-0.484375 -0.46875 -1.234375 -0.640625q-0.5625 -0.125 -2.21875 -0.125l-1.203125 0zm10.176056 6.125q0 -1.28125 0.625 -2.46875q0.625 -1.203125 1.78125 -1.828125q1.15625 -0.625 2.578125 -0.625q2.1875 0 3.59375 1.421875q1.40625 1.421875 1.40625 3.609375q0 2.1875 -1.421875 3.640625q-1.421875 1.4375 -3.5625 1.4375q-1.328125 0 -2.546875 -0.59375q-1.203125 -0.609375 -1.828125 -1.765625q-0.625 -1.171875 -0.625 -2.828125zm2.625 0.125q0 1.453125 0.671875 2.21875q0.6875 0.75 1.6875 0.75q1.0 0 1.671875 -0.75q0.6875 -0.765625 0.6875 -2.234375q0 -1.421875 -0.6875 -2.1875q-0.671875 -0.765625 -1.671875 -0.765625q-1.0 0 -1.6875 0.765625q-0.671875 0.765625 -0.671875 2.203125zm9.161621 -4.828125l2.359375 0l0 1.3125q1.265625 -1.53125 3.015625 -1.53125q0.9375 0 1.609375 0.390625q0.6875 0.375 1.125 1.140625q0.640625 -0.765625 1.375 -1.140625q0.75 -0.390625 1.578125 -0.390625q1.0625 0 1.796875 0.4375q0.75 0.421875 1.109375 1.265625q0.265625 0.625 0.265625 2.0l0 6.1875l-2.5625 0l0 -5.53125q0 -1.4375 -0.265625 -1.859375q-0.34375 -0.546875 -1.09375 -0.546875q-0.53125 0 -1.015625 0.328125q-0.46875 0.328125 -0.671875 0.96875q-0.203125 0.625 -0.203125 2.0l0 4.640625l-2.5625 0l0 -5.296875q0 -1.421875 -0.140625 -1.828125q-0.140625 -0.40625 -0.421875 -0.609375q-0.28125 -0.203125 -0.78125 -0.203125q-0.59375 0 -1.0625 0.328125q-0.46875 0.3125 -0.6875 0.921875q-0.203125 0.59375 -0.203125 1.984375l0 4.703125l-2.5625 0l0 -9.671875zm18.697754 2.953125l-2.328125 -0.421875q0.40625 -1.40625 1.359375 -2.078125q0.953125 -0.671875 2.84375 -0.671875q1.703125 0 2.546875 0.40625q0.84375 0.40625 1.171875 1.03125q0.34375 0.625 0.34375 2.28125l-0.015625 3.0q0 1.265625 0.109375 1.875q0.125 0.609375 0.46875 1.296875l-2.53125 0q-0.109375 -0.25 -0.25 -0.75q-0.0625 -0.234375 -0.09375 -0.3125q-0.65625 0.640625 -1.40625 0.96875q-0.734375 0.3125 -1.59375 0.3125q-1.484375 0 -2.34375 -0.8125q-0.859375 -0.8125 -0.859375 -2.046875q0 -0.828125 0.390625 -1.46875q0.390625 -0.640625 1.09375 -0.96875q0.703125 -0.34375 2.03125 -0.609375q1.796875 -0.328125 2.484375 -0.625l0 -0.25q0 -0.75 -0.359375 -1.0625q-0.359375 -0.3125 -1.375 -0.3125q-0.6875 0 -1.078125 0.28125q-0.375 0.265625 -0.609375 0.9375zm3.421875 2.078125q-0.484375 0.15625 -1.5625 0.390625q-1.0625 0.21875 -1.390625 0.4375q-0.5 0.359375 -0.5 0.90625q0 0.53125 0.40625 0.9375q0.40625 0.390625 1.015625 0.390625q0.703125 0 1.328125 -0.46875q0.46875 -0.34375 0.609375 -0.84375q0.09375 -0.328125 0.09375 -1.25l0 -0.5zm5.0476074 -6.34375l0 -2.375l2.5625 0l0 2.375l-2.5625 0zm0 10.984375l0 -9.671875l2.5625 0l0 9.671875l-2.5625 0zm13.980164 0l-2.5625 0l0 -4.9375q0 -1.5625 -0.171875 -2.015625q-0.15625 -0.46875 -0.53125 -0.71875q-0.359375 -0.265625 -0.875 -0.265625q-0.671875 0 -1.203125 0.375q-0.53125 0.359375 -0.734375 0.96875q-0.1875 0.59375 -0.1875 2.21875l0 4.375l-2.546875 0l0 -9.671875l2.375 0l0 1.421875q1.265625 -1.640625 3.1875 -1.640625q0.84375 0 1.546875 0.3125q0.703125 0.296875 1.0625 0.78125q0.359375 0.46875 0.5 1.078125q0.140625 0.59375 0.140625 1.703125l0 6.015625zm1.6928711 -2.765625l2.5625 -0.390625q0.171875 0.75 0.671875 1.140625q0.5 0.390625 1.40625 0.390625q0.984375 0 1.484375 -0.375q0.34375 -0.25 0.34375 -0.671875q0 -0.296875 -0.1875 -0.484375q-0.1875 -0.1875 -0.859375 -0.34375q-3.09375 -0.6875 -3.921875 -1.25q-1.140625 -0.78125 -1.140625 -2.171875q0 -1.265625 0.984375 -2.109375q1.0 -0.859375 3.078125 -0.859375q1.984375 0 2.953125 0.65625q0.96875 0.640625 1.328125 1.90625l-2.40625 0.4375q-0.15625 -0.5625 -0.59375 -0.859375q-0.421875 -0.296875 -1.234375 -0.296875q-1.0 0 -1.4375 0.28125q-0.296875 0.203125 -0.296875 0.515625q0 0.265625 0.25 0.46875q0.34375 0.25 2.390625 0.71875q2.046875 0.453125 2.859375 1.140625q0.796875 0.671875 0.796875 1.890625q0 1.34375 -1.109375 2.296875q-1.109375 0.953125 -3.28125 0.953125q-1.984375 0 -3.140625 -0.796875q-1.140625 -0.8125 -1.5 -2.1875z" fill-rule="nonzero"/><path fill="#cfe2f3" d="m637.65094 465.40158l277.02362 0l22.75586 22.75589l-22.75586 22.75592l-277.02362 0l22.75586 -22.75592z" fill-rule="evenodd"/><path stroke="#1464a5" stroke-width="1.0" stroke-linejoin="round" stroke-linecap="butt" d="m637.65094 465.40158l277.02362 0l22.75586 22.75589l-22.75586 22.75592l-277.02362 0l22.75586 -22.75592z" fill-rule="evenodd"/><path fill="#666666" d="m738.0779 488.48373q0 -2.046875 0.609375 -3.421875q0.453125 -1.03125 1.234375 -1.828125q0.796875 -0.8125 1.734375 -1.203125q1.25 -0.53125 2.875 -0.53125q2.953125 0 4.71875 1.828125q1.78125 1.828125 1.78125 5.09375q0 3.234375 -1.765625 5.0625q-1.75 1.828125 -4.6875 1.828125q-2.984375 0 -4.75 -1.8125q-1.75 -1.828125 -1.75 -5.015625zm2.78125 -0.09375q0 2.265625 1.046875 3.4375q1.046875 1.171875 2.65625 1.171875q1.609375 0 2.640625 -1.15625q1.046875 -1.171875 1.046875 -3.484375q0 -2.296875 -1.015625 -3.421875q-1.0 -1.140625 -2.671875 -1.140625q-1.671875 0 -2.6875 1.15625q-1.015625 1.140625 -1.015625 3.4375zm12.183289 -2.984375l2.390625 0l0 1.421875q0.46875 -0.734375 1.25 -1.1875q0.796875 -0.453125 1.765625 -0.453125q1.6875 0 2.859375 1.328125q1.171875 1.3125 1.171875 3.671875q0 2.421875 -1.1875 3.765625q-1.1875 1.34375 -2.859375 1.34375q-0.8125 0 -1.46875 -0.3125q-0.640625 -0.328125 -1.359375 -1.09375l0 4.875l-2.5625 0l0 -13.359375zm2.53125 4.671875q0 1.625 0.640625 2.40625q0.65625 0.78125 1.578125 0.78125q0.90625 0 1.484375 -0.71875q0.59375 -0.71875 0.59375 -2.34375q0 -1.515625 -0.609375 -2.25q-0.609375 -0.75 -1.515625 -0.75q-0.9375 0 -1.5625 0.734375q-0.609375 0.71875 -0.609375 2.140625zm14.536621 1.921875l2.546875 0.421875q-0.484375 1.40625 -1.546875 2.140625q-1.0625 0.734375 -2.65625 0.734375q-2.515625 0 -3.734375 -1.65625q-0.953125 -1.3125 -0.953125 -3.328125q0 -2.40625 1.25 -3.765625q1.265625 -1.359375 3.1875 -1.359375q2.15625 0 3.40625 1.421875q1.25 1.421875 1.1875 4.375l-6.40625 0q0.03125 1.140625 0.609375 1.78125q0.59375 0.625 1.484375 0.625q0.59375 0 1.0 -0.328125q0.421875 -0.328125 0.625 -1.0625zm0.15625 -2.59375q-0.03125 -1.109375 -0.578125 -1.6875q-0.546875 -0.578125 -1.328125 -0.578125q-0.84375 0 -1.390625 0.609375q-0.546875 0.609375 -0.53125 1.65625l3.828125 0zm13.422607 5.671875l-2.5625 0l0 -4.9375q0 -1.5625 -0.171875 -2.015625q-0.15625 -0.46875 -0.53125 -0.71875q-0.359375 -0.265625 -0.875 -0.265625q-0.671875 0 -1.203125 0.375q-0.53125 0.359375 -0.734375 0.96875q-0.1875 0.59375 -0.1875 2.21875l0 4.375l-2.546875 0l0 -9.671875l2.375 0l0 1.421875q1.265625 -1.640625 3.1875 -1.640625q0.84375 0 1.546875 0.3125q0.703125 0.296875 1.0625 0.78125q0.359375 0.46875 0.5 1.078125q0.140625 0.59375 0.140625 1.703125l0 6.015625zm7.7979736 0l0 -13.359375l4.328125 0q2.453125 0 3.203125 0.203125q1.140625 0.296875 1.921875 1.3125q0.78125 1.0 0.78125 2.59375q0 1.234375 -0.453125 2.078125q-0.453125 0.828125 -1.140625 1.3125q-0.6875 0.46875 -1.390625 0.625q-0.96875 0.203125 -2.796875 0.203125l-1.765625 0l0 5.03125l-2.6875 0zm2.6875 -11.09375l0 3.78125l1.484375 0q1.59375 0 2.125 -0.203125q0.546875 -0.203125 0.84375 -0.65625q0.3125 -0.453125 0.3125 -1.03125q0 -0.734375 -0.4375 -1.203125q-0.421875 -0.484375 -1.078125 -0.59375q-0.484375 -0.09375 -1.9375 -0.09375l-1.3125 0zm9.1467285 6.125q0 -1.28125 0.625 -2.46875q0.625 -1.203125 1.78125 -1.828125q1.15625 -0.625 2.578125 -0.625q2.1875 0 3.59375 1.421875q1.40625 1.421875 1.40625 3.609375q0 2.1875 -1.421875 3.640625q-1.421875 1.4375 -3.5625 1.4375q-1.328125 0 -2.546875 -0.59375q-1.203125 -0.609375 -1.828125 -1.765625q-0.625 -1.171875 -0.625 -2.828125zm2.625 0.125q0 1.453125 0.671875 2.21875q0.6875 0.75 1.6875 0.75q1.0 0 1.671875 -0.75q0.6875 -0.765625 0.6875 -2.234375q0 -1.421875 -0.6875 -2.1875q-0.671875 -0.765625 -1.671875 -0.765625q-1.0 0 -1.6875 0.765625q-0.671875 0.765625 -0.671875 2.203125zm11.817871 4.84375l-2.5625 0l0 -9.671875l2.375 0l0 1.375q0.609375 -0.984375 1.09375 -1.28125q0.484375 -0.3125 1.109375 -0.3125q0.875 0 1.6875 0.484375l-0.796875 2.234375q-0.640625 -0.421875 -1.203125 -0.421875q-0.53125 0 -0.90625 0.296875q-0.375 0.296875 -0.59375 1.078125q-0.203125 0.765625 -0.203125 3.234375l0 2.984375zm9.244629 -9.671875l0 2.03125l-1.75 0l0 3.90625q0 1.1875 0.046875 1.390625q0.046875 0.1875 0.21875 0.3125q0.1875 0.125 0.4375 0.125q0.359375 0 1.03125 -0.25l0.21875 2.0q-0.890625 0.375 -2.015625 0.375q-0.703125 0 -1.265625 -0.234375q-0.546875 -0.234375 -0.8125 -0.59375q-0.25 -0.375 -0.34375 -1.0q-0.09375 -0.453125 -0.09375 -1.8125l0 -4.21875l-1.171875 0l0 -2.03125l1.171875 0l0 -1.921875l2.578125 -1.5l0 3.421875l1.75 0zm0.8688965 6.90625l2.5625 -0.390625q0.171875 0.75 0.671875 1.140625q0.5 0.390625 1.40625 0.390625q0.984375 0 1.484375 -0.375q0.34375 -0.25 0.34375 -0.671875q0 -0.296875 -0.1875 -0.484375q-0.1875 -0.1875 -0.859375 -0.34375q-3.09375 -0.6875 -3.921875 -1.25q-1.140625 -0.78125 -1.140625 -2.171875q0 -1.265625 0.984375 -2.109375q1.0 -0.859375 3.078125 -0.859375q1.984375 0 2.953125 0.65625q0.96875 0.640625 1.328125 1.90625l-2.40625 0.4375q-0.15625 -0.5625 -0.59375 -0.859375q-0.421875 -0.296875 -1.234375 -0.296875q-1.0 0 -1.4375 0.28125q-0.296875 0.203125 -0.296875 0.515625q0 0.265625 0.25 0.46875q0.34375 0.25 2.390625 0.71875q2.046875 0.453125 2.859375 1.140625q0.796875 0.671875 0.796875 1.890625q0 1.34375 -1.109375 2.296875q-1.109375 0.953125 -3.28125 0.953125q-1.984375 0 -3.140625 -0.796875q-1.140625 -0.8125 -1.5 -2.1875z" fill-rule="nonzero"/><path fill="#f7893b" d="m836.9658 298.885l16.74408 -30.332031l66.97638 0c9.247498 0 16.74414 13.580109 16.74414 30.332031c0 16.751923 -7.496643 30.332031 -16.74414 30.332031l-66.97638 0z" fill-rule="evenodd"/><path stroke="#b45f06" stroke-width="1.0" stroke-linejoin="round" stroke-linecap="butt" d="m836.9658 298.885l16.74408 -30.332031l66.97638 0c9.247498 0 16.74414 13.580109 16.74414 30.332031c0 16.751923 -7.496643 30.332031 -16.74414 30.332031l-66.97638 0z" fill-rule="evenodd"/><path fill="#ffffff" d="m865.45483 292.57562l1.875 -0.171875q0.171875 0.9375 0.6875 1.390625q0.515625 0.4375 1.390625 0.4375q0.9375 0 1.40625 -0.390625q0.46875 -0.40625 0.46875 -0.921875q0 -0.34375 -0.203125 -0.578125q-0.1875 -0.234375 -0.6875 -0.421875q-0.34375 -0.109375 -1.546875 -0.40625q-1.546875 -0.390625 -2.171875 -0.953125q-0.875 -0.78125 -0.875 -1.921875q0 -0.71875 0.40625 -1.359375q0.421875 -0.640625 1.1875 -0.96875q0.78125 -0.328125 1.890625 -0.328125q1.796875 0 2.703125 0.796875q0.90625 0.78125 0.953125 2.09375l-1.921875 0.078125q-0.125 -0.734375 -0.53125 -1.046875q-0.40625 -0.328125 -1.234375 -0.328125q-0.828125 0 -1.3125 0.34375q-0.296875 0.21875 -0.296875 0.59375q0 0.34375 0.28125 0.578125q0.359375 0.3125 1.765625 0.640625q1.40625 0.328125 2.078125 0.6875q0.6875 0.359375 1.0625 0.96875q0.375 0.609375 0.375 1.515625q0 0.828125 -0.453125 1.546875q-0.453125 0.703125 -1.296875 1.0625q-0.828125 0.34375 -2.0625 0.34375q-1.8125 0 -2.78125 -0.828125q-0.96875 -0.84375 -1.15625 -2.453125zm15.3897705 -1.765625l-1.796875 0.328125q-0.09375 -0.53125 -0.421875 -0.796875q-0.328125 -0.28125 -0.828125 -0.28125q-0.6875 0 -1.09375 0.46875q-0.40625 0.46875 -0.40625 1.578125q0 1.234375 0.40625 1.75q0.421875 0.5 1.109375 0.5q0.53125 0 0.859375 -0.296875q0.328125 -0.296875 0.46875 -1.03125l1.796875 0.3125q-0.28125 1.234375 -1.078125 1.875q-0.796875 0.625 -2.125 0.625q-1.515625 0 -2.421875 -0.953125q-0.90625 -0.953125 -0.90625 -2.65625q0 -1.703125 0.90625 -2.65625q0.90625 -0.953125 2.453125 -0.953125q1.265625 0 2.0 0.546875q0.75 0.53125 1.078125 1.640625zm3.1312256 4.875l-1.828125 0l0 -6.90625l1.703125 0l0 0.984375q0.4375 -0.703125 0.78125 -0.921875q0.34375 -0.21875 0.796875 -0.21875q0.625 0 1.203125 0.34375l-0.5625 1.59375q-0.46875 -0.296875 -0.859375 -0.296875q-0.390625 0 -0.65625 0.21875q-0.265625 0.203125 -0.421875 0.765625q-0.15625 0.546875 -0.15625 2.296875l0 2.140625zm7.4367676 -2.203125l1.828125 0.3125q-0.34375 1.0 -1.109375 1.53125q-0.765625 0.515625 -1.890625 0.515625q-1.8125 0 -2.671875 -1.171875q-0.6875 -0.953125 -0.6875 -2.390625q0 -1.71875 0.890625 -2.6875q0.90625 -0.96875 2.28125 -0.96875q1.546875 0 2.4375 1.015625q0.890625 1.015625 0.84375 3.125l-4.578125 0q0.015625 0.8125 0.4375 1.265625q0.421875 0.453125 1.0625 0.453125q0.421875 0 0.71875 -0.234375q0.296875 -0.234375 0.4375 -0.765625zm0.109375 -1.84375q-0.015625 -0.796875 -0.40625 -1.203125q-0.390625 -0.421875 -0.953125 -0.421875q-0.59375 0 -0.984375 0.4375q-0.390625 0.4375 -0.390625 1.1875l2.734375 0zm7.3031006 1.84375l1.828125 0.3125q-0.34375 1.0 -1.109375 1.53125q-0.765625 0.515625 -1.890625 0.515625q-1.8125 0 -2.671875 -1.171875q-0.6875 -0.953125 -0.6875 -2.390625q0 -1.71875 0.890625 -2.6875q0.90625 -0.96875 2.28125 -0.96875q1.546875 0 2.4375 1.015625q0.890625 1.015625 0.84375 3.125l-4.578125 0q0.015625 0.8125 0.4375 1.265625q0.421875 0.453125 1.0625 0.453125q0.421875 0 0.71875 -0.234375q0.296875 -0.234375 0.4375 -0.765625zm0.109375 -1.84375q-0.015625 -0.796875 -0.40625 -1.203125q-0.390625 -0.421875 -0.953125 -0.421875q-0.59375 0 -0.984375 0.4375q-0.390625 0.4375 -0.390625 1.1875l2.734375 0zm9.599976 4.046875l-1.828125 0l0 -3.53125q0 -1.109375 -0.125 -1.4375q-0.109375 -0.328125 -0.375 -0.515625q-0.265625 -0.1875 -0.640625 -0.1875q-0.46875 0 -0.859375 0.265625q-0.375 0.265625 -0.515625 0.703125q-0.140625 0.421875 -0.140625 1.578125l0 3.125l-1.828125 0l0 -6.90625l1.703125 0l0 1.015625q0.90625 -1.171875 2.28125 -1.171875q0.609375 0 1.109375 0.21875q0.5 0.21875 0.75 0.5625q0.265625 0.328125 0.359375 0.765625q0.109375 0.421875 0.109375 1.21875l0 4.296875z" fill-rule="nonzero"/><path fill="#ffffff" d="m871.5645 314.4975l-1.25 0q-1.0 -1.515625 -1.515625 -3.125q-0.515625 -1.625 -0.515625 -3.140625q0 -1.890625 0.640625 -3.5625q0.5625 -1.453125 1.421875 -2.6875l1.25 0q-0.890625 1.96875 -1.234375 3.359375q-0.328125 1.375 -0.328125 2.921875q0 1.078125 0.1875 2.203125q0.203125 1.109375 0.546875 2.109375q0.234375 0.671875 0.796875 1.921875zm1.4227295 -2.8125l0 -9.546875l3.09375 0q1.75 0 2.296875 0.15625q0.8125 0.203125 1.359375 0.921875q0.5625 0.71875 0.5625 1.859375q0 0.875 -0.328125 1.484375q-0.3125 0.59375 -0.8125 0.9375q-0.484375 0.34375 -0.984375 0.453125q-0.703125 0.140625 -2.0 0.140625l-1.265625 0l0 3.59375l-1.921875 0zm1.921875 -7.921875l0 2.703125l1.0625 0q1.140625 0 1.515625 -0.140625q0.390625 -0.15625 0.609375 -0.46875q0.21875 -0.328125 0.21875 -0.75q0 -0.515625 -0.3125 -0.859375q-0.296875 -0.34375 -0.765625 -0.421875q-0.34375 -0.0625 -1.390625 -0.0625l-0.9375 0zm8.7022705 7.921875l-1.828125 0l0 -6.90625l1.703125 0l0 0.984375q0.4375 -0.703125 0.78125 -0.921875q0.34375 -0.21875 0.796875 -0.21875q0.625 0 1.203125 0.34375l-0.5625 1.59375q-0.46875 -0.296875 -0.859375 -0.296875q-0.390625 0 -0.65625 0.21875q-0.265625 0.203125 -0.421875 0.765625q-0.15625 0.546875 -0.15625 2.296875l0 2.140625zm3.4367676 -7.84375l0 -1.703125l1.828125 0l0 1.703125l-1.828125 0zm0 7.84375l0 -6.90625l1.828125 0l0 6.90625l-1.828125 0zm9.999878 0l-1.828125 0l0 -3.53125q0 -1.109375 -0.125 -1.4375q-0.109375 -0.328125 -0.375 -0.515625q-0.265625 -0.1875 -0.640625 -0.1875q-0.46875 0 -0.859375 0.265625q-0.375 0.265625 -0.515625 0.703125q-0.140625 0.421875 -0.140625 1.578125l0 3.125l-1.828125 0l0 -6.90625l1.703125 0l0 1.015625q0.90625 -1.171875 2.28125 -1.171875q0.609375 0 1.109375 0.21875q0.5 0.21875 0.75 0.5625q0.265625 0.328125 0.359375 0.765625q0.109375 0.421875 0.109375 1.21875l0 4.296875zm5.0163574 -6.90625l0 1.453125l-1.25 0l0 2.78125q0 0.84375 0.03125 0.984375q0.046875 0.140625 0.171875 0.234375q0.125 0.09375 0.3125 0.09375q0.25 0 0.734375 -0.171875l0.15625 1.421875q-0.640625 0.265625 -1.453125 0.265625q-0.484375 0 -0.890625 -0.15625q-0.390625 -0.171875 -0.578125 -0.4375q-0.1875 -0.265625 -0.265625 -0.71875q-0.046875 -0.3125 -0.046875 -1.28125l0 -3.015625l-0.84375 0l0 -1.453125l0.84375 0l0 -1.375l1.828125 -1.078125l0 2.453125l1.25 0zm0.7664795 9.71875q0.53125 -1.171875 0.75 -1.796875q0.234375 -0.609375 0.421875 -1.40625q0.1875 -0.8125 0.265625 -1.53125q0.09375 -0.734375 0.09375 -1.5q0 -1.546875 -0.328125 -2.921875q-0.328125 -1.390625 -1.21875 -3.359375l1.234375 0q0.984375 1.40625 1.53125 2.96875q0.546875 1.5625 0.546875 3.1875q0 1.359375 -0.4375 2.90625q-0.484375 1.75 -1.59375 3.453125l-1.265625 0z" fill-rule="nonzero"/><path fill="#2dcccd" d="m713.9971 322.84302l0 0c-3.4794312 0 -6.30011 -10.726379 -6.30011 -23.958008c0 -13.231659 2.8206787 -23.958008 6.30011 -23.958008l25.200317 0c3.4794922 0 6.30011 10.726349 6.30011 23.958008c0 13.231628 -2.8206177 23.958008 -6.30011 23.958008z" fill-rule="evenodd"/><path fill="#000000" fill-opacity="0.0" d="m713.9971 274.927l0 0c3.4794312 0 6.30011 10.726349 6.30011 23.958008c0 13.231628 -2.8206787 23.958008 -6.30011 23.958008" fill-rule="evenodd"/><path fill="#000000" fill-opacity="0.0" d="m713.9971 322.84302l0 0c-3.4794312 0 -6.30011 -10.726379 -6.30011 -23.958008c0 -13.231659 2.8206787 -23.958008 6.30011 -23.958008l25.200317 0c3.4794922 0 6.30011 10.726349 6.30011 23.958008c0 13.231628 -2.8206177 23.958008 -6.30011 23.958008z" fill-rule="evenodd"/><path stroke="#02a5a5" stroke-width="1.0" stroke-linejoin="round" stroke-linecap="butt" d="m713.9971 274.927l0 0c3.4794312 0 6.30011 10.726349 6.30011 23.958008c0 13.231628 -2.8206787 23.958008 -6.30011 23.958008" fill-rule="evenodd"/><path stroke="#02a5a5" stroke-width="1.0" stroke-linejoin="round" stroke-linecap="butt" d="m713.9971 322.84302l0 0c-3.4794312 0 -6.30011 -10.726379 -6.30011 -23.958008c0 -13.231659 2.8206787 -23.958008 6.30011 -23.958008l25.200317 0c3.4794922 0 6.30011 10.726349 6.30011 23.958008c0 13.231628 -2.8206177 23.958008 -6.30011 23.958008z" fill-rule="evenodd"/><path fill="#000000" fill-opacity="0.0" d="m628.1011 297.88977l79.590515 1.0078735" fill-rule="evenodd"/><path stroke="#1464a5" stroke-width="1.0" stroke-linejoin="round" stroke-linecap="butt" d="m628.1011 297.88977l79.590515 1.0078735" fill-rule="evenodd"/><path fill="#000000" fill-opacity="0.0" d="m745.4975 298.885l45.73413 0l0 0.06298828l45.73047 0" fill-rule="evenodd"/><path stroke="#1464a5" stroke-width="1.0" stroke-linejoin="round" stroke-linecap="butt" d="m745.49756 298.885l45.73407 0l0 0.06298828l42.303406 0" fill-rule="evenodd"/><path fill="#1464a5" stroke="#1464a5" stroke-width="1.0" stroke-linecap="butt" d="m833.53503 298.948l-1.1245728 1.1245728l3.0897217 -1.1245728l-3.0897217 -1.1245728z" fill-rule="evenodd"/><path fill="#000000" fill-opacity="0.0" d="m328.98172 339.06906l30.519684 0l0 -17.228333" fill-rule="evenodd"/><path stroke="#1464a5" stroke-width="1.0" stroke-linejoin="round" stroke-linecap="butt" d="m328.98172 339.06906l30.519684 0l0 -17.228333" fill-rule="evenodd"/></g></svg>