<?xml version="1.0" encoding="UTF-8" standalone="no"?>
<svg
   xmlns:dc="http://purl.org/dc/elements/1.1/"
   xmlns:cc="http://creativecommons.org/ns#"
   xmlns:rdf="http://www.w3.org/1999/02/22-rdf-syntax-ns#"
   xmlns:svg="http://www.w3.org/2000/svg"
   xmlns="http://www.w3.org/2000/svg"
   xmlns:sodipodi="http://sodipodi.sourceforge.net/DTD/sodipodi-0.dtd"
   xmlns:inkscape="http://www.inkscape.org/namespaces/inkscape"
   sodipodi:docname="mist_gris.svg"
   inkscape:version="1.0rc1 (09960d6, 2020-04-09)"
   id="svg8"
   version="1.1"
   viewBox="0 0 192.24336 192.23869"
   height="192.23869mm"
   width="192.24336mm">
  <defs
     id="defs2" />
  <sodipodi:namedview
     fit-margin-bottom="0"
     fit-margin-right="0"
     fit-margin-left="0"
     fit-margin-top="0"
     inkscape:window-maximized="0"
     inkscape:window-y="26"
     inkscape:window-x="0"
     inkscape:window-height="1024"
     inkscape:window-width="1680"
     showgrid="false"
     inkscape:document-rotation="0"
     inkscape:current-layer="layer4"
     inkscape:document-units="mm"
     inkscape:cy="372.0588"
     inkscape:cx="385.37036"
     inkscape:zoom="0.987069"
     inkscape:pageshadow="2"
     inkscape:pageopacity="0.0"
     borderopacity="1.0"
     bordercolor="#666666"
     pagecolor="#ffffff"
     id="base" />
  <metadata
     id="metadata5">
    <rdf:RDF>
      <cc:Work
         rdf:about="">
        <dc:format>image/svg+xml</dc:format>
        <dc:type
           rdf:resource="http://purl.org/dc/dcmitype/StillImage" />
        <dc:title></dc:title>
      </cc:Work>
    </rdf:RDF>
  </metadata>
  <g
     transform="translate(-9.1710663,-43.033524)"
     style="display:inline"
     inkscape:label="Fondo"
     id="layer3"
     inkscape:groupmode="layer">
    <path
       sodipodi:nodetypes="csccccscccc"
       inkscape:connector-curvature="0"
       d="m 201.40979,139.15285 c 0,53.08526 -43.0341,96.11936 -96.11936,96.11936 -53.085258,0 -96.119362,-43.0341 -96.1193637,-96.11936 l 0.030534,-96.094696 11.9124067,-0.0036 22.135458,21.879929 c 11.598943,-8.872134 38.114691,-21.899107 62.040965,-21.900959 24.02514,-0.0019 48.61612,10.810334 61.361,22.724017 l 22.64568,-22.716717 12.11732,0.0025 z"
       style="opacity:1;fill:#f9f9f9;stroke-width:0.28554"
       id="path867" />
  </g>
  <g
     transform="translate(-9.1710663,-43.033524)"
     inkscape:label="Fondo Contorno"
     id="layer7"
     inkscape:groupmode="layer">
    <path
       id="path1292-6"
       style="display:inline;opacity:1;fill:#ececec;fill-opacity:1;stroke:none;stroke-width:0.26458300000000001px;stroke-linecap:butt;stroke-linejoin:miter;stroke-opacity:1"
       d="M 194.49769,47.377467 166.79137,75.915261 C 154.60062,61.508016 127.21429,49.992003 104.72952,49.871372 82.244754,49.750743 56.520952,60.12234 42.113708,75.360771 L 16.06982,51.256301 16.044499,138.80806 c 0,51.81068 41.429329,88.38365 88.962011,88.38324 47.53268,-5.3e-4 89.51108,-38.78603 89.76816,-88.66022 z"
       inkscape:connector-curvature="0"
       sodipodi:nodetypes="ccscccccc" />
  </g>
  <g
     transform="translate(-9.1710663,-43.033524)"
     style="display:inline"
     inkscape:label="Contorno"
     id="layer4"
     inkscape:groupmode="layer">
    <path
       transform="scale(0.26458333)"
       sodipodi:nodetypes="ccsccccccscccscccs"
       inkscape:connector-curvature="0"
       d="m 735.10938,179.06445 -104.7168,107.85938 c -46.07528,-54.45258 -149.58265,-97.97767 -234.56446,-98.4336 -84.9818,-0.45592 -182.20562,38.74382 -236.6582,96.33789 l -98.433592,-91.10351 -0.0957,330.9043 c 0,195.81985 156.583292,334.04842 336.234372,334.04687 179.65107,-0.002 338.30961,-146.59287 339.28125,-335.09375 z m -338.12696,33.88086 c 101.21923,0.54304 188.28486,57.75445 231.23828,108.51758 l 84.00782,-83.79492 0.97656,285.57031 C 712.29928,698.96723 564.38881,835.62548 396.91016,835.62695 229.43148,835.62839 83.59375,706.76686 83.59375,524.21484 l -0.04687,-272.88086 77.10351,68.17579 C 211.41349,265.818 295.7632,212.40227 396.98242,212.94531 Z"
       style="opacity:1;fill:#cccccc;fill-opacity:1;stroke:none;stroke-width:0.99999899999999997px;stroke-linecap:butt;stroke-linejoin:miter;stroke-opacity:1"
       id="path1292" />
  </g>
  <g
     transform="translate(-9.1710663,-43.033524)"
     style="display:inline"
     inkscape:label="Letras"
     id="layer5"
     inkscape:groupmode="layer">
    <path
       sodipodi:nodetypes="ccscscczczccccccccczcczcccczccsccczcccccczcczcccczccc"
       inkscape:connector-curvature="0"
       id="path1573"
       d="m 87.27465,160.14206 -0.0847,-21.05673 c 0,0 0.58128,-14.68432 -14.684303,-14.68432 -8.339023,0 -10.997798,6.6495 -10.997798,6.6495 0,0 -1.594295,-6.6495 -11.359557,-6.6495 -14.19826,0 -14.684306,14.68432 -14.684306,14.68432 l -0.02496,21.33379 c 0.277062,13.02193 11.346255,36.13901 36.32013,36.01811 24.973875,-0.1209 33.524554,-20.50262 33.524554,-20.50262 0,0 8.29326,20.98406 32.13923,20.77968 23.84597,-0.20438 36.8493,-20.22555 36.8493,-36.84929 l 0.0293,-28.47655 7.17434,-0.0178 v -7.11604 h -7.20362 V 107.5002 l -7.15004,-0.003 -0.0286,16.62704 -32.95756,0.2521 c 0,0 -11.39737,0.54128 -11.39737,11.0825 0,10.54122 11.39737,10.80542 11.39737,10.80542 l 7.16581,0.025 c 0,0 5.33933,0.68303 5.26418,3.87887 -0.0752,3.19584 -4.98712,3.32475 -4.98712,3.32475 h -19.39437 v 6.6495 l 19.64193,0.40945 c 0,0 11.66612,0.21445 11.66612,-10.66076 0,-10.87521 -11.66612,-11.22716 -11.66612,-11.22716 l -7.72825,0.14467 c 0,0 -4.15593,-0.0706 -4.15593,-3.62677 0,-4.11032 3.87887,-4.40804 3.87887,-4.40804 l 33.24749,0.55412 v 28.81448 c 0,0 -1.47372,31.0972 -29.64568,30.1998 -28.17196,-0.8974 -29.09155,-30.1998 -29.09155,-30.1998 l -0.0581,-35.91226 10.86351,-10.63422 -28.814493,-0.27706 11.403233,10.91128 -0.5978,36.18932 c 0,0 -2.057692,29.98749 -29.645676,29.92274 -27.587984,-0.0648 -29.368612,-29.92274 -29.368612,-29.92274 l 0.554124,-21.61087 c 0,0 0.551585,-7.48068 7.757748,-7.48068 7.206163,0 7.263654,7.75774 7.263654,7.75774 l 0.217059,21.61086 7.193312,-0.467 -0.134393,-21.14386 c 0,0 0.0095,-8.0348 7.600399,-8.0348 7.590878,0 7.505644,8.31187 7.505644,8.31187 l -0.277063,20.77968 z"
       style="opacity:1;fill:#cccccc;fill-opacity:1;stroke:none;stroke-width:0.26458300000000001px;stroke-linecap:butt;stroke-linejoin:miter;stroke-opacity:1" />
  </g>
  <g
     transform="translate(-9.1710663,-43.033524)"
     style="display:inline"
     inkscape:label="Ojos"
     id="layer6"
     inkscape:groupmode="layer">
    <path
       sodipodi:nodetypes="czcczcc"
       inkscape:connector-curvature="0"
       id="path1594"
       d="m 57.68899,103.63114 c 0,0 0.158219,-14.737973 14.816664,-14.684287 14.658445,0.05369 14.601181,14.684287 14.601181,14.684287 l -7.049657,0.0831 c 0,0 0.0034,-7.643463 -7.685038,-7.643463 -7.688434,0 -7.123949,7.497973 -7.123949,7.497973 z"
       style="opacity:1;fill:#cccccc;fill-opacity:1;stroke:none;stroke-width:0.26458300000000001px;stroke-linecap:butt;stroke-linejoin:miter;stroke-opacity:1" />
    <path
       style="display:inline;opacity:1;fill:#cccccc;fill-opacity:1;stroke:none;stroke-width:0.26458300000000001px;stroke-linecap:butt;stroke-linejoin:miter;stroke-opacity:1"
       d="m 123.30569,103.63114 c 0,0 0.15822,-14.737973 14.81667,-14.684287 14.65845,0.05369 14.60119,14.684287 14.60119,14.684287 l -7.04966,0.0831 c 0,0 0.003,-7.643463 -7.68505,-7.643463 -7.68843,0 -7.12395,7.497973 -7.12395,7.497973 z"
       id="path1594-7"
       inkscape:connector-curvature="0"
       sodipodi:nodetypes="czcczcc" />
  </g>
</svg>
